<?xml version="1.0" encoding="utf-8"?>
<!-- Generator: Adobe Illustrator 23.0.1, SVG Export Plug-In . SVG Version: 6.00 Build 0)  -->
<svg version="1.1" id="레이어_1" xmlns="http://www.w3.org/2000/svg" xmlns:xlink="http://www.w3.org/1999/xlink" x="0px"
	 y="0px" viewBox="0 0 18.56 24.19" style="enable-background:new 0 0 18.56 24.19;" xml:space="preserve">
<style type="text/css">
	.st0{fill:#FFFFFF;}
	.st1{fill:none;stroke:#000000;stroke-width:32;stroke-miterlimit:10;}
	.st2{fill:none;stroke:#000000;stroke-width:18;stroke-miterlimit:10;}
	.st3{fill:none;stroke:#000000;stroke-width:32;stroke-linecap:round;stroke-linejoin:round;stroke-miterlimit:10;}
	.st4{fill:none;stroke:#000000;stroke-width:22;stroke-linecap:round;stroke-linejoin:round;stroke-miterlimit:10;}
	.st5{fill:none;stroke:#000000;stroke-width:32;stroke-linecap:round;stroke-linejoin:round;stroke-miterlimit:20;}
	.st6{fill:none;stroke:#000000;stroke-width:22;stroke-miterlimit:10;}
	.st7{fill:none;stroke:#000000;stroke-width:22;stroke-linecap:round;stroke-linejoin:round;stroke-miterlimit:20;}
	.st8{fill:#00AA87;}
	.st9{fill:none;stroke:#000000;stroke-width:32;stroke-linejoin:round;stroke-miterlimit:10;}
	.st10{fill:none;stroke:#000000;stroke-width:22;stroke-linejoin:round;stroke-miterlimit:10;}
	.st11{fill:none;stroke:#000000;stroke-width:25;stroke-linecap:round;stroke-linejoin:round;stroke-miterlimit:10;}
	.st12{fill:none;stroke:#000000;stroke-width:17;stroke-linecap:round;stroke-linejoin:round;stroke-miterlimit:10;}
	.st13{fill:none;stroke:#000000;stroke-width:22;stroke-linecap:square;stroke-linejoin:round;stroke-miterlimit:10;}
	.st14{fill:none;stroke:#7C7C7C;stroke-width:45;stroke-linecap:round;stroke-linejoin:round;stroke-miterlimit:10;}
	.st15{fill:none;stroke:#B2002B;stroke-width:45;stroke-linecap:round;stroke-linejoin:round;stroke-miterlimit:10;}
	.st16{fill:none;stroke:#00AA87;stroke-width:45;stroke-linecap:round;stroke-linejoin:round;stroke-miterlimit:10;}
	.st17{fill:none;stroke:#000000;stroke-width:24;stroke-miterlimit:10;}
	.st18{clip-path:url(#SVGID_2_);}
	.st19{clip-path:url(#SVGID_4_);}
	.st20{clip-path:url(#SVGID_6_);}
	.st21{fill:none;stroke:#FFFFFF;stroke-width:32;stroke-miterlimit:10;}
	.st22{fill:none;stroke:#FFFFFF;stroke-width:32;stroke-linecap:round;stroke-linejoin:round;stroke-miterlimit:10;}
	.st23{fill:#63D7C0;}
	.st24{fill:#FAFAFA;}
	.st25{fill:none;stroke:#000000;stroke-width:2;stroke-miterlimit:10;}
	.st26{fill:none;stroke:#000000;stroke-miterlimit:10;}
	.st27{fill:none;stroke:#000000;stroke-width:1.5;stroke-miterlimit:10;}
	.st28{fill:#E2637B;stroke:#FFFFFF;stroke-width:2;stroke-miterlimit:10;}
	.st29{fill:#E2637B;}
	.st30{fill:#B4B8BD;}
	.st31{fill:none;stroke:#000000;stroke-width:1.5;stroke-linejoin:round;stroke-miterlimit:10;}
</style>
<g>
	<path d="M9.28,5.02c-1.38,0-2.51-1.13-2.51-2.51S7.89,0,9.28,0c1.38,0,2.51,1.13,2.51,2.51S10.66,5.02,9.28,5.02z M9.28,1.66
		c-0.47,0-0.85,0.38-0.85,0.85s0.38,0.85,0.85,0.85c0.47,0,0.85-0.38,0.85-0.85S9.75,1.66,9.28,1.66z"/>
	<path d="M17.73,20.13H0.83c-0.3,0-0.59-0.17-0.73-0.43c-0.15-0.27-0.13-0.59,0.03-0.85l1.9-2.94v-5.26c0-3.99,3.25-7.24,7.24-7.24
		s7.24,3.25,7.24,7.24l0.01,5.26l1.91,2.94c0.17,0.26,0.18,0.58,0.03,0.85C18.31,19.97,18.03,20.13,17.73,20.13z M2.36,18.47H16.2
		l-1.21-1.86c-0.09-0.13-0.13-0.29-0.13-0.45l-0.01-5.5c0-3.07-2.5-5.58-5.58-5.58S3.7,7.58,3.7,10.65v5.5
		c0,0.16-0.05,0.32-0.13,0.45L2.36,18.47z"/>
	<path d="M9.28,24.19c-2.15,0-3.96-1.87-3.96-4.08h1.66c0,1.31,1.05,2.42,2.3,2.42s2.3-1.11,2.3-2.42h1.66
		C13.24,22.32,11.43,24.19,9.28,24.19z"/>
</g>
</svg>
