<svg xmlns="http://www.w3.org/2000/svg" xmlns:xlink="http://www.w3.org/1999/xlink" width="175" height="30" viewBox="0 0 175 30">
    <defs>
        <filter id="a" width="114.5%" height="102.5%" x="-7.3%" y="-1.2%" filterUnits="objectBoundingBox">
            <feOffset dx="-4" in="SourceAlpha" result="shadowOffsetOuter1"/>
            <feGaussianBlur in="shadowOffsetOuter1" result="shadowBlurOuter1" stdDeviation="2"/>
            <feColorMatrix in="shadowBlurOuter1" result="shadowMatrixOuter1" values="0 0 0 0 0 0 0 0 0 0 0 0 0 0 0 0 0 0 0.15 0"/>
            <feMerge>
                <feMergeNode in="shadowMatrixOuter1"/>
                <feMergeNode in="SourceGraphic"/>
            </feMerge>
        </filter>
        <path id="b" d="M0 22.435h166.207V0H0z"/>
    </defs>
    <g fill="none" fill-rule="evenodd" filter="url(#a)" transform="translate(8.123 4)">
        <path fill="#FFF" d="M28.496 19.307c-1.135-.3-2.056-.7-2.766-1.2l1.383-3.13a8.91 8.91 0 0 0 2.32 1.072c.879.272 1.743.407 2.595.407 1.617 0 2.425-.407 2.425-1.22 0-.43-.23-.748-.691-.955-.462-.207-1.202-.425-2.223-.654-1.121-.243-2.057-.504-2.81-.782a4.726 4.726 0 0 1-1.935-1.34c-.539-.614-.808-1.443-.808-2.486 0-.914.248-1.739.744-2.476.497-.735 1.237-1.318 2.223-1.747.987-.428 2.195-.642 3.628-.642.979 0 1.943.11 2.893.332.95.221 1.787.547 2.51.975l-1.298 3.151c-1.417-.772-2.793-1.158-4.126-1.158-.838 0-1.447.125-1.83.375s-.575.576-.575.976.227.7.68.9c.455.2 1.185.407 2.193.622 1.134.243 2.074.503 2.819.782.744.278 1.39.721 1.935 1.33.546.606.82 1.431.82 2.474 0 .9-.248 1.714-.744 2.444-.498.728-1.242 1.31-2.235 1.746-.992.436-2.198.654-3.617.654-1.205 0-2.375-.15-3.51-.45M49.047 11.624c.44-.38.66-.918.66-1.618 0-.7-.22-1.243-.66-1.63-.44-.385-1.093-.578-1.957-.578h-2.34v4.393h2.34c.864 0 1.518-.19 1.957-.567m1.809-6.494c.992.449 1.758 1.093 2.298 1.929.539.836.808 1.818.808 2.947s-.27 2.107-.808 2.935c-.54.829-1.306 1.469-2.298 1.919-.993.45-2.163.675-3.511.675h-2.596v3.923h-4.211V4.454h6.807c1.348 0 2.518.226 3.51.676"/>
        <mask id="c" fill="#fff">
            <use xlink:href="#b"/>
        </mask>
        <path fill="#FFF" d="M55.791 19.457h4.213V4.453h-4.213zM77.172 4.454v15.004h-3.468l-6.573-7.995v7.995h-4.127V4.454h3.467l6.574 7.995V4.454zM92.852 12.513c.837-.7 1.255-1.7 1.255-3s-.418-2.306-1.255-3.013c-.837-.707-2.05-1.06-3.638-1.06h-4.255v8.123h4.255c1.588 0 2.801-.35 3.638-1.05m.765-6.72c1.064.893 1.596 2.133 1.596 3.72 0 1.571-.532 2.804-1.596 3.696-1.063.893-2.53 1.34-4.403 1.34h-4.255v4.908h-1.085V4.453h5.34c1.872 0 3.34.448 4.403 1.34M100.383 8.837c.724-.436 1.603-.653 2.639-.653v1.05l-.256-.021c-1.234 0-2.198.389-2.893 1.168-.695.778-1.042 1.86-1.042 3.247v5.83h-1.064V8.27h1.021v2.443c.34-.814.872-1.44 1.595-1.876M112.776 17.978a4.282 4.282 0 0 0 1.595-1.672c.39-.714.586-1.528.586-2.443 0-.914-.196-1.729-.586-2.444a4.3 4.3 0 0 0-1.595-1.67c-.674-.4-1.437-.6-2.287-.6-.85 0-1.614.2-2.287.6-.674.4-1.206.957-1.596 1.67-.39.715-.585 1.53-.585 2.444 0 .915.195 1.73.585 2.443.39.715.922 1.273 1.596 1.672.673.4 1.436.601 2.287.601.85 0 1.613-.2 2.287-.6m-5.128.835a5.214 5.214 0 0 1-1.988-2.025c-.483-.865-.724-1.84-.724-2.926s.241-2.06.724-2.926a5.228 5.228 0 0 1 1.988-2.025c.845-.486 1.79-.729 2.84-.729 1.05 0 1.997.243 2.84.73a5.24 5.24 0 0 1 1.99 2.024c.482.865.723 1.84.723 2.926s-.24 2.061-.722 2.926a5.226 5.226 0 0 1-1.99 2.025c-.844.486-1.791.728-2.84.728-1.05 0-1.996-.242-2.841-.728M124.849 18.75a2.66 2.66 0 0 1-1.01.59 3.944 3.944 0 0 1-1.266.203c-.965 0-1.71-.268-2.234-.804-.525-.535-.788-1.282-.788-2.24V9.192h-2.042V8.27h2.042V5.826h1.064V8.27h3.532v.92h-3.532v7.203c0 .728.174 1.282.522 1.66.347.38.861.569 1.542.569.695 0 1.27-.207 1.723-.622l.447.75zM134.008 17.978a4.282 4.282 0 0 0 1.595-1.672c.39-.714.586-1.528.586-2.443 0-.914-.196-1.729-.586-2.444a4.3 4.3 0 0 0-1.595-1.67c-.674-.4-1.436-.6-2.287-.6-.85 0-1.614.2-2.287.6-.674.4-1.206.957-1.595 1.67-.391.715-.586 1.53-.586 2.444 0 .915.195 1.73.586 2.443.389.715.92 1.273 1.595 1.672.673.4 1.436.601 2.287.601.85 0 1.613-.2 2.287-.6m-5.128.835a5.214 5.214 0 0 1-1.988-2.025c-.483-.865-.724-1.84-.724-2.926s.241-2.06.724-2.926a5.228 5.228 0 0 1 1.988-2.025c.845-.486 1.792-.729 2.84-.729 1.05 0 1.997.243 2.842.73a5.244 5.244 0 0 1 1.989 2.024c.481.865.722 1.84.722 2.926s-.24 2.061-.722 2.926a5.23 5.23 0 0 1-1.99 2.025c-.844.486-1.791.728-2.84.728-1.05 0-1.996-.242-2.841-.728M142.081 18.814a5.203 5.203 0 0 1-2-2.025c-.481-.865-.723-1.84-.723-2.926 0-1.1.242-2.082.723-2.947a5.138 5.138 0 0 1 2-2.015c.851-.479 1.816-.718 2.894-.718.893 0 1.705.175 2.436.526.73.35 1.322.86 1.776 1.532l-.787.58a3.777 3.777 0 0 0-1.479-1.255 4.487 4.487 0 0 0-1.946-.418c-.866 0-1.642.196-2.33.59a4.178 4.178 0 0 0-1.617 1.66c-.39.715-.584 1.536-.584 2.465 0 .93.194 1.751.584 2.465.39.715.93 1.268 1.617 1.661.688.393 1.464.59 2.33.59.709 0 1.358-.14 1.946-.418a3.81 3.81 0 0 0 1.48-1.254l.786.578a4.408 4.408 0 0 1-1.776 1.533c-.73.35-1.543.525-2.436.525-1.078 0-2.043-.243-2.894-.729M159.006 17.978a4.289 4.289 0 0 0 1.595-1.672c.39-.714.585-1.528.585-2.443 0-.914-.195-1.729-.585-2.444a4.306 4.306 0 0 0-1.595-1.67c-.674-.4-1.437-.6-2.287-.6-.852 0-1.614.2-2.287.6-.674.4-1.206.957-1.596 1.67-.39.715-.585 1.53-.585 2.444 0 .915.194 1.73.585 2.443.39.715.922 1.273 1.596 1.672.673.4 1.435.601 2.287.601.85 0 1.613-.2 2.287-.6m-5.128.835a5.214 5.214 0 0 1-1.988-2.025c-.483-.865-.724-1.84-.724-2.926s.241-2.06.724-2.926a5.228 5.228 0 0 1 1.988-2.025c.845-.486 1.79-.729 2.84-.729 1.05 0 1.997.243 2.84.73a5.237 5.237 0 0 1 1.99 2.024c.482.865.723 1.84.723 2.926s-.24 2.061-.723 2.926a5.223 5.223 0 0 1-1.99 2.025c-.843.486-1.79.728-2.84.728-1.05 0-1.995-.242-2.84-.728M165.143 19.457h1.064V3.553h-1.064z" mask="url(#c)"/>
        <path fill="#00DBBF" d="M16.34 13.499a2.275 2.275 0 0 1-2.27-2.281 2.275 2.275 0 0 1 2.27-2.281 2.275 2.275 0 0 1 2.268 2.28A2.275 2.275 0 0 1 16.34 13.5M5.22 6.082a2.263 2.263 0 0 1-3.1-.835 2.286 2.286 0 0 1 .831-3.115 2.262 2.262 0 0 1 3.099.835 2.286 2.286 0 0 1-.83 3.115m.83 13.388a2.262 2.262 0 0 1-3.099.835 2.287 2.287 0 0 1-.83-3.116 2.265 2.265 0 0 1 3.1-.835 2.287 2.287 0 0 1 .829 3.116M16.348 7.112h-.037A10.011 10.011 0 0 1 7.633 2.07l-.01-.017A4.074 4.074 0 0 0 2.043.55 4.117 4.117 0 0 0 .548 6.159a10.164 10.164 0 0 1 0 10.117 4.118 4.118 0 0 0 1.495 5.609 4.074 4.074 0 0 0 5.58-1.503l.01-.017a10.012 10.012 0 0 1 8.678-5.042h.037c2.251 0 4.076-1.838 4.076-4.105 0-2.268-1.825-4.106-4.076-4.106" mask="url(#c)"/>
    </g>
</svg>
