<?xml version="1.0" encoding="utf-8"?>
<!-- Generator: Adobe Illustrator 23.0.1, SVG Export Plug-In . SVG Version: 6.00 Build 0)  -->
<svg version="1.1" xmlns="http://www.w3.org/2000/svg" xmlns:xlink="http://www.w3.org/1999/xlink" x="0px" y="0px"
	 viewBox="0 0 19.3 17.1" style="enable-background:new 0 0 19.3 17.1;" xml:space="preserve">
<style type="text/css">
	.st0{fill:#F1F3F5;}
	.st1{fill:#FFFFFF;}
	.st2{fill:none;stroke:#000000;stroke-miterlimit:10;}
	.st3{fill:#969696;}
	.st4{fill:#4BA789;}
	.st5{fill:#F7F7F7;}
	.st6{fill:#00AA87;}
	.st7{fill:none;stroke:#000000;stroke-width:0.5;stroke-miterlimit:10;}
	.st8{fill:#FCFCFC;}
	.st9{fill:#FFFFFF;stroke:#E0E0E0;stroke-miterlimit:10;}
	.st10{fill:#F2F4F6;}
	.st11{fill:none;stroke:#5E5E5E;stroke-linecap:round;stroke-linejoin:round;stroke-miterlimit:10;}
	.st12{fill:#FFA35F;}
	.st13{fill:#00DBBF;}
	.st14{fill:#343434;}
	.st15{fill:#8C8C8C;}
	.st16{fill:#3C3C3B;}
	.st17{fill:#141414;}
	.st18{fill:#393939;}
	.st19{fill:none;stroke:#FCFCFC;stroke-linecap:round;stroke-linejoin:round;stroke-miterlimit:10;}
	.st20{fill:none;stroke:#7A7A7A;stroke-width:0.3;stroke-miterlimit:10;}
	.st21{fill:none;stroke:#000000;stroke-linecap:round;stroke-linejoin:round;stroke-miterlimit:10;}
	.st22{fill:none;stroke:#999999;stroke-linecap:round;stroke-linejoin:round;stroke-miterlimit:10;}
	.st23{fill:#828282;}
	.st24{fill:none;stroke:#636363;stroke-miterlimit:10;}
	.st25{fill:none;stroke:#636363;stroke-linecap:round;stroke-linejoin:round;stroke-miterlimit:10;}
	.st26{fill:none;stroke:#888888;stroke-width:0.5;stroke-miterlimit:10;}
	.st27{fill-rule:evenodd;clip-rule:evenodd;}
	.st28{fill:none;stroke:#DBDBDB;stroke-width:0.5;stroke-miterlimit:10;}
	.st29{fill:none;stroke:#000000;stroke-width:2;stroke-miterlimit:10;}
	.st30{fill:none;stroke:#FFFFFF;stroke-width:1.4;stroke-linecap:round;stroke-miterlimit:10;}
	.st31{fill:#FCB400;}
	.st32{fill:#4F473E;}
	.st33{fill:none;stroke:#000000;stroke-width:3;stroke-linecap:round;stroke-linejoin:round;stroke-miterlimit:10;}
	.st34{fill:#636363;}
	.st35{fill:none;stroke:#515151;stroke-miterlimit:10;}
	.st36{fill:none;stroke:#515151;stroke-miterlimit:10;stroke-dasharray:6.035,5.0292;}
	.st37{display:none;}
	.st38{fill:#FCCADE;stroke:#FF0000;stroke-width:2;stroke-miterlimit:10;}
	.st39{fill:#E7E6E6;}
</style>
<g id="레이어_2">
</g>
<g id="레이어_1">
	<path class="st27" d="M16.1,12.4v2.9H2.7c-0.5,0-0.8-0.4-0.8-0.8V5c0.4,0.2,0.8,0.3,1.2,0.3H16v2.7h-2.4c-0.3,0-0.6,0.3-0.6,0.6
		v3.2c0,0.3,0.3,0.6,0.6,0.6H16.1z M0.7,14.5c0,1.1,0.9,2,2,2h13.9c0.3,0,0.6-0.3,0.6-0.6v-3.5H18c0.3,0,0.6-0.3,0.6-0.6V8.7
		c0-0.3-0.3-0.6-0.6-0.6h-0.8V4.7c0-0.3-0.3-0.6-0.6-0.6h-1.4V1.2c0-0.3-0.3-0.6-0.6-0.6H3.1C1.8,0.6,0.7,1.7,0.7,3V14.5z M14,4.1
		H3.1C2.4,4.1,1.9,3.6,1.9,3c0-0.7,0.5-1.2,1.2-1.2H14V4.1z M17.4,11.3h-3.3v-2h3.3V11.3z"/>
</g>
</svg>
