<svg width="44" height="44" viewBox="0 0 44 44" fill="none" xmlns="http://www.w3.org/2000/svg">
<rect width="44" height="44" rx="22" fill="#F1F3F9"/>
<path fill-rule="evenodd" clip-rule="evenodd" d="M16.8958 15.4372C16.8958 15.0345 17.2223 14.708 17.625 14.708H26.375C26.7777 14.708 27.1041 15.0345 27.1041 15.4372C27.1041 15.8399 26.7777 16.1663 26.375 16.1663H17.625C17.2223 16.1663 16.8958 15.8399 16.8958 15.4372ZM21.4844 17.8382C21.7691 17.5535 22.2308 17.5535 22.5156 17.8382L26.8906 22.2132C27.1753 22.498 27.1753 22.9597 26.8906 23.2444C26.6058 23.5292 26.1441 23.5292 25.8594 23.2444L22.7322 20.1172V28.5622C22.7322 28.9649 22.4057 29.2913 22.003 29.2913C21.6003 29.2913 21.2738 28.9649 21.2738 28.5622V20.1112L18.1406 23.2444C17.8558 23.5292 17.3941 23.5292 17.1094 23.2444C16.8246 22.9597 16.8246 22.498 17.1094 22.2132L21.4844 17.8382Z" fill="#999999"/>
</svg>
