<svg width="16" height="16" viewBox="0 0 16 16" fill="none" xmlns="http://www.w3.org/2000/svg">
<path d="M6.27934 7.0409C6.31171 7.14462 6.35889 7.27943 6.42481 7.43362C6.58737 7.81386 6.85606 8.29378 7.28113 8.71885C7.70613 9.14383 8.18483 9.41138 8.56354 9.57277C8.71694 9.63814 8.85102 9.68484 8.95417 9.71685L10.3845 9.0017C10.8029 8.79245 11.2976 8.8033 11.7065 9.0306L13.2716 9.90077C13.7212 10.1507 14 10.6247 14 11.139V12.9359C14 14.2938 12.7132 15.3511 11.3481 14.8905C9.55259 14.2846 6.65229 13.0988 4.77677 11.2232C2.90121 9.3477 1.71537 6.44739 1.10952 4.65183C0.648925 3.28678 1.70623 2 3.0641 2H4.86072C5.3754 2 5.84952 2.27916 6.09931 2.72902L6.96578 4.28985C7.19264 4.69851 7.20338 5.19287 6.99427 5.61104L6.27934 7.0409Z" fill="#FF7A00"/>
</svg>
