<svg width="15" height="15" viewBox="0 0 15 15" fill="none" xmlns="http://www.w3.org/2000/svg">
<path fill-rule="evenodd" clip-rule="evenodd" d="M7.5 15C11.6421 15 15 11.6421 15 7.5C15 3.35786 11.6421 0 7.5 0C3.35786 0 0 3.35786 0 7.5C0 11.6421 3.35786 15 7.5 15ZM8.4375 4.06259C8.4375 3.54482 8.01777 3.12509 7.5 3.12509C6.98223 3.12509 6.5625 3.54482 6.5625 4.06259V4.37509C6.5625 4.89285 6.98223 5.31259 7.5 5.31259C8.01777 5.31259 8.4375 4.89285 8.4375 4.37509V4.06259ZM8.4375 7.50009C8.4375 6.98232 8.01777 6.56259 7.5 6.56259C6.98223 6.56259 6.5625 6.98232 6.5625 7.50009V11.2501C6.5625 11.7679 6.98223 12.1876 7.5 12.1876C8.01777 12.1876 8.4375 11.7679 8.4375 11.2501V7.50009Z" fill="#CCCCCC"/>
</svg>
