<svg width="18" height="18" viewBox="0 0 18 18" fill="none" xmlns="http://www.w3.org/2000/svg">
<path d="M13.6694 4.22688C13.3769 3.93438 12.9044 3.93438 12.6119 4.22688L8.94437 7.88687L5.27688 4.21937C4.98438 3.92688 4.51187 3.92688 4.21937 4.21937C3.92688 4.51187 3.92688 4.98438 4.21937 5.27688L7.88687 8.94437L4.21937 12.6119C3.92688 12.9044 3.92688 13.3769 4.21937 13.6694C4.51187 13.9619 4.98438 13.9619 5.27688 13.6694L8.94437 10.0019L12.6119 13.6694C12.9044 13.9619 13.3769 13.9619 13.6694 13.6694C13.9619 13.3769 13.9619 12.9044 13.6694 12.6119L10.0019 8.94437L13.6694 5.27688C13.9544 4.99188 13.9544 4.51188 13.6694 4.22688Z" fill="#B0B0B0"/>
</svg>
