<svg width="116" height="116" viewBox="0 0 116 116" fill="none" xmlns="http://www.w3.org/2000/svg">
<mask id="mask0_923_58894" style="mask-type:alpha" maskUnits="userSpaceOnUse" x="0" y="0" width="116" height="116">
<rect x="0.5" width="115" height="116" fill="#D9D9D9"/>
</mask>
<g mask="url(#mask0_923_58894)">
<path d="M96.3998 51.4048C98.7809 52.5527 101.118 53.803 103.39 55.1484C105.283 56.2744 107.279 57.3492 108.699 59.0675C111.051 61.8971 112.784 64.9241 109.762 67.103C106.813 69.2234 103.121 69.7133 99.5892 69.8084C92.9846 69.9838 86.3365 69.5159 79.812 68.4776" fill="white"/>
<path d="M96.8877 70.5102C91.2225 70.5102 85.4554 70.0496 79.7101 69.1356C79.346 69.0771 79.0985 68.7335 79.1567 68.3752C79.215 68.0096 79.5499 67.7683 79.914 67.8195C86.5039 68.8651 93.1157 69.3111 99.5746 69.1429C102.582 69.0625 106.419 68.7042 109.383 66.5692C110.177 65.9989 110.606 65.3628 110.701 64.6243C110.912 62.9792 109.376 60.9099 108.196 59.4988C106.987 58.0364 105.276 57.0347 103.616 56.0623L103.055 55.7333C100.805 54.3952 98.4678 53.1449 96.1158 52.0189C95.7881 51.8581 95.6425 51.4632 95.8027 51.1269C95.9629 50.7905 96.3561 50.6516 96.6911 50.8125C99.0795 51.9604 101.453 53.2326 103.733 54.5853L104.286 54.9143C106.041 55.9453 107.854 57.0128 109.216 58.6506C110.657 60.3908 112.281 62.6647 112.012 64.7998C111.873 65.9038 111.247 66.869 110.148 67.6586C106.893 70.0057 102.8 70.4005 99.6038 70.4883C98.7008 70.5102 97.7906 70.5248 96.8804 70.5248L96.8877 70.5102Z" fill="#414042"/>
<path d="M27.0196 50.0448C27.1653 59.8424 27.1725 68.558 28.3813 79.7303C28.6216 81.9457 29.3789 85.7259 30.6823 87.5684C33.1799 91.0634 40.549 91.0123 43.7676 91.5021C45.9011 91.8239 52.4255 92.0725 57.9596 91.9774C63.4937 92.0798 70.0181 91.8239 72.1517 91.5021C75.3702 91.0123 82.7393 91.0707 85.2369 87.5684C86.5476 85.7259 87.2976 81.9457 87.5379 79.7303C88.7467 68.5653 88.754 59.8498 88.8996 50.0448C88.8996 50.0448 84.9238 48.6263 57.9596 48.5239C30.9954 48.6263 27.0196 50.0448 27.0196 50.0448Z" fill="white"/>
<path d="M75.8799 105.921C76.9867 106.141 77.9115 105.38 77.9479 104.298C78.4139 106.791 80.7368 106.974 81.4067 106.901C82.0766 106.828 84.2393 106.141 83.7732 103.647C84.1956 104.671 85.3607 105.197 86.3437 104.744C88.0986 103.918 87.8802 101.79 87.5015 100.723C87.0719 99.5453 86.3218 98.3609 85.4626 97.5712C83.613 95.8602 80.9261 95.3704 79.295 95.5605C77.6566 95.7433 75.2609 96.8108 74.1104 98.8507C73.5789 99.8013 73.2876 101.103 73.3094 102.324C73.3385 103.428 73.9065 105.519 75.8872 105.921H75.8799Z" fill="#FFA400"/>
<path d="M81.1374 107.581C80.2636 107.581 78.7708 107.266 77.897 105.965C77.8388 106.023 77.7805 106.075 77.7222 106.119C77.1761 106.557 76.4698 106.718 75.7489 106.572C73.3678 106.089 72.6687 103.684 72.6396 102.338C72.6178 100.978 72.9455 99.5526 73.528 98.5217C74.7659 96.3208 77.2708 95.1144 79.215 94.8951C81.0719 94.6903 83.9554 95.2826 85.9069 97.0813C86.8244 97.9294 87.6545 99.209 88.1206 100.496C88.7395 102.207 88.5356 104.451 86.6205 105.343C86.0089 105.629 85.3171 105.651 84.6763 105.395C84.5744 105.351 84.4724 105.307 84.3777 105.256C84.2831 105.592 84.1302 105.899 83.919 106.184C83.0597 107.354 81.6471 107.544 81.4869 107.559C81.3923 107.574 81.2757 107.574 81.1519 107.574L81.1374 107.581ZM77.9407 103.633C78.2538 103.633 78.5305 103.859 78.5888 104.174C79.0184 106.469 81.2976 106.236 81.3194 106.236C81.5888 106.206 82.3898 105.994 82.834 105.387C83.1399 104.971 83.2345 104.43 83.1107 103.764C83.0452 103.428 83.2491 103.099 83.5768 103.004C83.9044 102.909 84.2467 103.07 84.3777 103.384C84.5234 103.735 84.8001 104.013 85.1496 104.152C85.4482 104.269 85.7758 104.261 86.0525 104.13C87.7128 103.355 86.8681 100.971 86.8608 100.942C86.4603 99.8451 85.7613 98.763 84.9967 98.0537C83.351 96.5329 80.9117 96.0357 79.3534 96.2112C77.8024 96.3867 75.6761 97.3884 74.6785 99.1724C74.2125 100.006 73.9431 101.176 73.9649 102.309C73.9867 103.187 74.4455 104.949 76.0111 105.263C76.346 105.329 76.6664 105.263 76.9067 105.073C77.1397 104.883 77.2781 104.605 77.2854 104.276C77.2999 103.94 77.5621 103.662 77.897 103.633C77.9116 103.633 77.9334 103.633 77.948 103.633H77.9407Z" fill="#B75F14"/>
<path d="M89.1763 49.8697C89.2491 41.2054 90.0428 34.6248 86.4894 25.4852C84.2248 19.453 81.9893 17.998 79.4261 16.4187C76.0328 14.3348 64.6224 12.3095 57.9523 12.4557H57.7411C51.0711 12.3095 39.6606 14.3348 36.2674 16.4187C33.7042 17.998 31.4688 19.453 29.2041 25.4852C25.6507 34.6248 26.4444 41.2127 26.5172 49.8697" fill="white"/>
<path d="M89.1763 50.542C88.8122 50.542 88.5136 50.235 88.5209 49.8694C88.5282 48.5825 88.5573 47.3395 88.5864 46.1258C88.7321 39.2966 88.8631 33.3961 85.8776 25.7334C83.6567 19.8036 81.5377 18.5021 79.0911 16.9886C75.9162 15.0364 64.6733 12.9672 57.9814 13.1207H57.7556C51.0492 12.9672 39.8062 15.0364 36.6314 16.9886C34.1847 18.4948 32.0658 19.8036 29.8448 25.7261C26.8593 33.3961 26.9904 39.2966 27.1361 46.1258C27.1652 47.3395 27.187 48.5825 27.2016 49.8694C27.2016 50.235 26.9103 50.542 26.5462 50.542C26.1822 50.542 25.8836 50.2496 25.8836 49.884C25.8763 48.6044 25.8472 47.3614 25.8181 46.155C25.6652 39.1796 25.5413 33.1548 28.6142 25.2508C30.9953 18.9116 33.3983 17.4273 35.9469 15.8553C39.6169 13.596 51.3769 11.6511 57.7775 11.79H57.9741C64.3747 11.6291 76.1201 13.596 79.7901 15.8553C82.3387 17.4273 84.7417 18.9116 87.1228 25.2582C90.1957 33.1621 90.0646 39.1796 89.919 46.155C89.8898 47.3614 89.868 48.5971 89.8534 49.884C89.8534 50.2496 89.5549 50.542 89.1908 50.542H89.1763Z" fill="#414042"/>
<path d="M31.4177 37.1909C31.3886 43.9834 37.0611 49.5184 44.0806 49.5476C51.1002 49.5842 56.8236 44.1077 56.8527 37.3151H59.0664C59.1028 44.1077 64.819 49.5842 71.8385 49.5476C78.8581 49.5111 84.5232 43.9761 84.5014 37.1909C84.4723 31.9411 81.0499 27.4809 76.2512 25.7407C70.0982 27.9489 62.8747 31.9118 57.9596 31.9337C53.0444 31.9045 45.8137 27.9415 39.6679 25.7407C34.8693 27.4882 31.4469 31.9411 31.4177 37.1909Z" fill="#FEE0C8"/>
<path d="M54.3405 41.4097C54.3551 44.6854 56.1027 46.6449 58.0178 46.6376C59.9329 46.6303 61.6587 44.6488 61.6441 41.3805C61.6295 38.1048 59.8747 35.4434 57.9669 35.4507C56.059 35.458 54.326 38.1414 54.3405 41.4097Z" fill="#FFA400"/>
<path d="M58.0033 47.1349C56.8819 47.1349 55.8406 46.5719 55.076 45.5556C54.2823 44.5027 53.8527 43.0696 53.8454 41.4098C53.8309 37.9148 55.7168 34.9609 57.9669 34.9463H57.9814C59.0737 34.9463 60.1514 35.6628 60.9451 36.9131C61.717 38.1342 62.1466 39.7135 62.1539 41.3733C62.1684 45.1461 60.0931 47.1276 58.0324 47.1349H58.0178H58.0033ZM57.9814 35.948H57.9741C56.4814 35.9553 54.8284 38.2 54.843 41.4098C54.8503 43.2304 55.4037 44.3418 55.8698 44.956C56.445 45.7164 57.2023 46.1405 58.0033 46.1405H58.0178C59.547 46.1405 61.1636 44.4661 61.149 41.3806C61.149 39.9109 60.7703 38.5144 60.1004 37.4469C59.496 36.4964 58.7242 35.948 57.9814 35.948Z" fill="#B75F14"/>
<path d="M61.331 41.4611C61.331 41.4611 59.8091 44.0056 57.9887 43.9983C57.0785 43.9983 55.5493 43.0258 54.6464 41.4245C54.6464 41.4245 55.9717 39.5527 57.9887 39.5527C60.0058 39.5527 61.331 41.4611 61.331 41.4611Z" fill="#B75F14"/>
<path d="M58.0034 44.4956H57.9888C56.9184 44.4956 55.2145 43.4281 54.2169 41.6659C54.1222 41.4978 54.1295 41.2857 54.246 41.1322C54.3042 41.0444 55.746 39.0483 57.9888 39.0483C60.2316 39.0483 61.6806 41.081 61.7389 41.1687C61.8481 41.3296 61.8554 41.5416 61.7607 41.7098C61.6952 41.8268 60.0714 44.4956 58.0034 44.4956ZM55.2654 41.4685C56.1174 42.7919 57.3698 43.4939 57.9961 43.5012C59.0883 43.5012 60.1951 42.2362 60.7121 41.4904C60.2971 41.0152 59.2922 40.05 57.9888 40.05C56.6854 40.05 55.6659 41.0006 55.2581 41.4685H55.2654Z" fill="#B75F14"/>
<path d="M75.9017 26.1284C74.4818 26.6695 70.5206 28.1611 67.0035 29.4918C65.2486 30.3473 63.5957 30.8445 63.1005 33.1842C62.1903 37.5127 65.0447 41.4318 69.4501 41.5049C73.1638 41.5707 76.2076 38.5876 76.244 34.8659C76.2731 31.9193 74.4017 29.4114 71.773 28.4828C70.7536 28.066 70.5351 28.1464 70.5351 28.1464" fill="white"/>
<path d="M69.5739 42.1774C69.5302 42.1774 69.4865 42.1774 69.4428 42.1774C67.1928 42.1408 65.2194 41.183 63.8723 39.494C62.4815 37.7392 61.9645 35.3921 62.4524 33.0524C62.9548 30.6541 64.5641 29.9083 66.1151 29.1771C66.3117 29.0894 66.5156 28.9944 66.7122 28.892L70.2656 27.5466C70.2656 27.5466 70.2948 27.5393 70.302 27.532C70.3093 27.5247 70.3312 27.5247 70.3385 27.5174L75.6614 25.4993C76.0037 25.3677 76.3896 25.5432 76.5134 25.8869C76.6444 26.2305 76.4697 26.618 76.1274 26.7423L72.5667 28.0877C75.1954 29.2649 76.9212 31.919 76.892 34.873C76.8775 36.8544 76.0837 38.7043 74.6711 40.0862C73.2875 41.4316 71.4817 42.1774 69.5593 42.1774H69.5739ZM70.6589 28.8262L67.2438 30.1204C67.0908 30.2008 66.8869 30.2958 66.6831 30.3909C65.1976 31.0855 64.1272 31.5827 63.7631 33.3302C63.3553 35.2824 63.7777 37.2273 64.9209 38.6677C66.0132 40.0423 67.6297 40.8174 69.472 40.8539C71.0958 40.8686 72.6176 40.2763 73.7681 39.143C74.9187 38.0097 75.5667 36.4962 75.5886 34.873C75.6104 32.2919 73.9939 29.9814 71.5618 29.126C71.0302 28.9066 70.7681 28.8481 70.6661 28.8262H70.6589Z" fill="#414042"/>
<path d="M71.2981 37.365C72.6816 35.9617 72.6539 33.6818 71.2363 32.2727C69.8188 30.8636 67.548 30.8589 66.1645 32.2622C64.781 33.6656 64.8086 35.9455 66.2262 37.3546C67.6438 38.7637 69.9146 38.7683 71.2981 37.365Z" fill="#414042"/>
<path d="M56.3866 12.4556C59.2556 12.5726 61.3309 11.4174 62.9329 9.58947C63.1368 9.3555 63.3771 9.08496 63.6902 9.08496C64.0689 9.08496 64.331 9.47247 64.4766 9.82343C65.4524 12.1924 64.6295 15.1756 62.5761 16.6965" fill="white"/>
<path d="M62.5762 17.3616C62.3723 17.3616 62.1684 17.2666 62.0446 17.0911C61.8262 16.7986 61.8917 16.3746 62.183 16.1625C63.9888 14.8245 64.7243 12.1557 63.865 10.0792C63.7995 9.91101 63.7267 9.82329 63.6903 9.7721C63.6175 9.8306 63.5082 9.95488 63.4427 10.028C61.513 12.2288 59.2047 13.2452 56.3649 13.1209C56.0008 13.1062 55.7168 12.7918 55.7314 12.4262C55.7459 12.0606 56.0372 11.7609 56.4231 11.7901C58.8188 11.8925 60.7994 11.0297 62.4451 9.1506C62.6999 8.86545 63.0786 8.42675 63.6903 8.41943H63.7048C64.0543 8.41943 64.6879 8.57298 65.0956 9.56738C66.1952 12.2288 65.285 15.5264 62.9694 17.23C62.8529 17.3178 62.7145 17.3616 62.5762 17.3616Z" fill="#414042"/>
<path d="M66.37 92.0434C68.3142 96.1379 72.6105 99.4136 76.6664 100.211C78.9237 100.657 81.2684 100.598 83.3073 99.7061C90.3414 96.6132 88.1642 86.0039 88.2297 79.1528" fill="white"/>
<path d="M79.3314 101.146C78.4357 101.146 77.4964 101.051 76.5352 100.861C72.1735 100.006 67.7461 96.4887 65.7655 92.3211C65.6053 91.992 65.751 91.5899 66.0786 91.4363C66.4063 91.2755 66.8068 91.4217 66.9597 91.7508C68.7656 95.5602 72.8069 98.77 76.7828 99.5523C79.1348 100.013 81.2902 99.8521 83.0305 99.0917C88.317 96.7666 87.9821 89.6523 87.6835 83.3788C87.6107 81.8726 87.5451 80.4541 87.5524 79.1454C87.5524 78.7798 87.851 78.4873 88.2151 78.4873C88.5791 78.4873 88.8777 78.7944 88.8704 79.16C88.8558 80.4322 88.9287 81.8361 88.9942 83.3204C89.3 89.6889 89.6714 97.6221 83.5475 100.32C82.295 100.876 80.8533 101.154 79.3095 101.154L79.3314 101.146Z" fill="#414042"/>
<path d="M85.5426 23.072C85.6155 22.8819 85.8266 22.3043 85.8994 22.1142C86.1834 21.3611 86.5475 20.6299 86.8097 19.8476C87.2684 18.4584 87.8364 16.9302 87.3412 15.4752C86.8169 13.9397 84.6106 13.8593 83.3508 14.1664C82.1348 14.4296 81.0498 14.8829 79.9575 15.4825C79.6517 15.6507 78.9017 16.0235 78.5959 16.199C78.5959 16.199 77.3289 19.0506 80.6129 21.7705C83.4018 24.081 85.5426 23.0647 85.5426 23.0647V23.072Z" fill="white"/>
<path d="M85.4991 23.8399C85.419 23.8399 85.3316 23.8253 85.2515 23.7888C84.9092 23.6498 84.749 23.2623 84.8874 22.9187L85.033 22.5677C85.317 21.895 85.9797 20.3157 86.1763 19.7088C86.5331 18.6194 86.9044 17.4861 86.8972 16.3089C86.8899 15.6581 86.7151 15.2121 86.3583 14.9416C85.8122 14.5248 84.7782 14.4809 83.5184 14.8246C82.4043 15.1244 79.3752 16.4697 79.0693 16.6379C78.7489 16.8134 78.3412 16.6891 78.1664 16.3674C77.9916 16.0457 78.1154 15.6362 78.4358 15.4607C78.7853 15.2706 81.9165 13.8741 83.1762 13.5378C84.3704 13.216 86.0233 13.0186 87.1593 13.8814C87.6399 14.247 88.2079 14.9562 88.2224 16.2943C88.237 17.6981 87.8146 18.9923 87.436 20.1329C87.2175 20.791 86.5695 22.341 86.2564 23.0868L86.118 23.4232C86.0161 23.6791 85.7612 23.8399 85.5063 23.8399H85.4991Z" fill="#414042"/>
<path d="M40.0174 26.1284C41.4373 26.6695 45.3986 28.1611 48.9156 29.4918C50.6705 30.3473 52.3235 30.8445 52.8187 33.1842C53.7289 37.5127 50.8744 41.4318 46.469 41.5049C42.7553 41.5707 39.7115 38.5876 39.6751 34.8659C39.646 31.9193 41.5174 29.4114 44.1461 28.4828C45.1655 28.066 45.384 28.1464 45.384 28.1464" fill="white"/>
<path d="M46.3453 42.1774C44.4229 42.1774 42.6097 41.4389 41.2335 40.0862C39.8208 38.7043 39.0344 36.8544 39.0126 34.873C38.9835 31.9337 40.702 29.2795 43.3452 28.0877C41.7869 27.4954 40.4835 27.0056 39.7844 26.7423C39.4422 26.6107 39.2675 26.2305 39.3985 25.8869C39.5296 25.5432 39.9155 25.3677 40.2505 25.4993C41.1971 25.8576 43.2724 26.6473 45.5952 27.5247C45.5952 27.5247 45.6098 27.5247 45.6171 27.532C45.6171 27.532 45.6316 27.532 45.6389 27.5393C46.7894 27.9707 47.9982 28.4314 49.156 28.8701C49.4109 28.9944 49.6148 29.0894 49.8114 29.1771C51.3624 29.901 52.9716 30.6541 53.4741 33.0524C53.9619 35.3921 53.4449 37.7392 52.0541 39.494C50.7143 41.183 48.7337 42.1408 46.4836 42.1774C46.4399 42.1774 46.3963 42.1774 46.3526 42.1774H46.3453ZM45.2603 28.8262C45.1584 28.8408 44.9035 28.9066 44.3938 29.1113C41.9326 29.9814 40.316 32.2846 40.3379 34.8656C40.3524 36.4888 41.0005 38.0024 42.1583 39.1357C43.3161 40.269 44.8234 40.8686 46.4545 40.8466C48.2968 40.8174 49.9133 40.035 51.0055 38.6604C52.1488 37.22 52.5711 35.2751 52.1634 33.3229C51.7993 31.5827 50.7216 31.0782 49.2434 30.3836C49.0395 30.2885 48.8356 30.1935 48.6245 30.0911C47.5249 29.6743 46.3671 29.2429 45.2603 28.8189V28.8262Z" fill="#414042"/>
<path d="M49.8259 36.7378C49.6585 36.7378 49.491 36.672 49.3599 36.5477C47.6779 34.8806 45.3695 34.0471 43.185 34.3249C42.8136 34.3688 42.486 34.1129 42.4423 33.7473C42.3986 33.3817 42.6535 33.0454 43.0176 33.0015C45.6026 32.6725 48.3259 33.6449 50.292 35.5972C50.5541 35.8531 50.5541 36.2772 50.292 36.5404C50.1609 36.672 49.9935 36.7378 49.8187 36.7378H49.8259Z" fill="#414042"/>
<path d="M30.3838 23.072C30.311 22.8819 30.0998 22.3043 30.0269 22.1142C29.7429 21.3611 29.3789 20.6299 29.1167 19.8476C28.658 18.4584 28.09 16.9302 28.5852 15.4752C29.1095 13.9397 31.3158 13.8593 32.5755 14.1664C33.7916 14.4296 34.8766 14.8829 35.9688 15.4825C36.2747 15.6507 36.8645 15.9577 37.1703 16.1332C37.1703 16.1332 38.8888 19.4235 35.6048 22.1434C32.8159 24.4539 30.3765 23.0647 30.3765 23.0647L30.3838 23.072Z" fill="white"/>
<path d="M30.4056 23.7888C30.1435 23.7888 29.8959 23.6352 29.794 23.3793L29.692 23.1307C29.4007 22.4361 28.7162 20.7983 28.4905 20.1329C28.1119 18.9923 27.6895 17.7054 27.7041 16.2943C27.7186 14.9562 28.2939 14.2397 28.7672 13.8814C29.9032 13.0186 31.5561 13.216 32.7503 13.5378C34.0101 13.8741 37.1412 15.2779 37.4907 15.4607C37.8111 15.6362 37.9349 16.0384 37.7602 16.3674C37.5854 16.6891 37.1849 16.8134 36.8572 16.6379C36.5514 16.4697 33.5222 15.1244 32.4081 14.8246C31.1483 14.4883 30.1144 14.5321 29.5682 14.9416C29.2114 15.2121 29.0366 15.6581 29.0293 16.3089C29.0148 17.4934 29.3862 18.6194 29.7503 19.7088C29.9542 20.3303 30.6241 21.9316 30.9153 22.6116L31.0246 22.8675C31.1629 23.2038 31.0027 23.5986 30.6677 23.7376C30.5876 23.7741 30.5003 23.7888 30.4129 23.7888H30.4056Z" fill="#414042"/>
<path d="M88.1642 79.8988C88.1642 79.8988 88.135 79.8988 88.1205 79.8988C87.7564 79.8769 87.4797 79.5552 87.5015 79.1896C87.6108 77.5445 87.6253 75.3217 87.6471 72.9674C87.6544 71.4538 87.669 69.8964 87.7054 68.4414C87.7127 68.0758 87.9967 67.7687 88.3826 67.7907C88.7467 67.798 89.038 68.1051 89.0307 68.4707C88.9943 69.9184 88.9797 71.4611 88.9724 72.9674C88.9579 75.3437 88.9433 77.581 88.8268 79.2701C88.8049 79.621 88.5137 79.8916 88.1642 79.8916V79.8988Z" fill="#414042"/>
<path d="M40.9714 105.943C39.8864 106.155 38.9252 105.38 38.816 104.298C38.5175 106.813 36.2237 106.981 35.5538 106.901C34.8839 106.82 32.6994 106.118 32.9979 103.603C32.6411 104.634 31.527 105.16 30.5222 104.693C28.7309 103.852 28.8036 101.702 29.1168 100.635C29.4663 99.4501 30.1362 98.2655 30.9372 97.4686C32.6557 95.7576 35.2917 95.2824 36.9228 95.4798C38.5612 95.6772 41.0078 96.7667 42.2748 98.8359C42.8646 99.801 43.236 101.11 43.2943 102.345C43.338 103.457 42.9083 105.563 40.9714 105.957V105.943Z" fill="#FFA400"/>
<path d="M35.8378 107.581C35.6994 107.581 35.5829 107.581 35.481 107.559C34.9785 107.5 34.1484 107.23 33.493 106.667C33.1217 106.352 32.7139 105.877 32.4954 105.205C32.4153 105.248 32.3353 105.292 32.2479 105.329C31.6071 105.607 30.9007 105.592 30.2526 105.292C28.039 104.254 28.1264 101.666 28.4905 100.437C28.8764 99.1285 29.6192 97.8416 30.4784 96.9862C32.3061 95.1729 35.146 94.5806 37.0101 94.8073C38.9398 95.0412 41.4957 96.2623 42.85 98.4777C43.4836 99.516 43.9059 100.942 43.9714 102.302C44.0442 104.086 43.1777 106.184 41.117 106.601C40.4252 106.74 39.7334 106.586 39.18 106.17C39.1072 106.111 39.0344 106.053 38.9616 105.987C38.1679 107.274 36.7261 107.581 35.8523 107.581H35.8378ZM32.9979 102.931C33.0488 102.931 33.0998 102.931 33.1435 102.945C33.4785 103.018 33.6969 103.333 33.6532 103.676C33.5513 104.532 33.777 105.175 34.3377 105.651C34.811 106.045 35.3935 106.206 35.6338 106.235C35.6557 106.235 37.8839 106.477 38.1606 104.217C38.197 103.881 38.481 103.633 38.816 103.633C39.1509 103.633 39.4349 103.896 39.4713 104.232C39.5077 104.583 39.6752 104.897 39.9447 105.095C40.1995 105.285 40.5126 105.351 40.833 105.292C42.7044 104.912 42.6243 102.463 42.6243 102.36C42.5661 101.22 42.2238 100.028 41.6995 99.1724C40.5781 97.3444 38.3936 96.3135 36.8281 96.1234C35.2698 95.9406 32.9032 96.4231 31.3886 97.9294C30.6823 98.6313 30.0634 99.7134 29.743 100.81C29.4954 101.651 29.4007 103.428 30.7915 104.079C31.0901 104.217 31.4105 104.225 31.7017 104.1C32.0076 103.969 32.2478 103.706 32.3571 103.377C32.4517 103.099 32.7066 102.923 32.9833 102.923L32.9979 102.931Z" fill="#B75F14"/>
<path d="M50.5395 92.0434C48.6973 96.1379 44.1826 99.4136 40.1849 100.211C37.964 100.657 35.612 100.598 33.5076 99.7061C26.2477 96.6132 28.3012 86.0039 27.7405 79.1528" fill="white"/>
<path d="M37.5343 101.147C35.9906 101.147 34.5343 100.869 33.2454 100.32C27.1725 97.7319 27.1797 90.4787 27.1943 84.081C27.1943 82.3335 27.1943 80.681 27.0778 79.2041C27.0487 78.8385 27.3181 78.5168 27.6822 78.4875C28.0463 78.4583 28.3666 78.7288 28.3958 79.0944C28.5196 80.6225 28.5196 82.3042 28.5196 84.081C28.5123 90.0619 28.505 96.8472 33.7624 99.0919C35.561 99.8596 37.7309 100.02 40.0538 99.5599C44.117 98.7483 48.2676 95.4726 49.9351 91.7656C50.088 91.4292 50.4739 91.283 50.8162 91.4292C51.1511 91.5828 51.2968 91.9776 51.1511 92.314C49.3234 96.3793 44.7651 99.9766 40.3159 100.861C39.3693 101.051 38.4372 101.147 37.5416 101.147H37.5343Z" fill="#414042"/>
<path d="M27.7551 79.8988C27.4128 79.8988 27.1143 79.6283 27.0925 79.2773C26.9832 77.6175 26.9687 75.7896 26.9614 73.852C26.9614 72.5359 26.9468 71.1394 26.9104 69.6551C26.9031 69.2895 27.1871 68.9824 27.5585 68.9751C27.9371 68.9751 28.2284 69.2529 28.2357 69.6258C28.2721 71.1247 28.2794 72.5286 28.2867 73.852C28.294 75.7677 28.3012 77.5737 28.4104 79.1969C28.4323 79.5624 28.1556 79.8842 27.7915 79.9061C27.777 79.9061 27.7624 79.9061 27.7478 79.9061L27.7551 79.8988Z" fill="#414042"/>
<path d="M58.3455 92.6356H57.581C53.4086 92.6356 49.8478 92.5551 47.0006 92.4016C46.6365 92.3797 46.3526 92.0653 46.3744 91.6997C46.3963 91.3341 46.7167 91.0416 47.0735 91.0709C49.9862 91.2317 53.627 91.3048 57.9669 91.3048C62.285 91.2975 65.9477 91.2317 68.8603 91.0709C69.2171 91.0416 69.5376 91.3341 69.5594 91.6997C69.5812 92.0653 69.2973 92.3797 68.9332 92.4016C66.086 92.5625 62.5253 92.6356 58.3455 92.6356Z" fill="#414042"/>
<path d="M89.8899 71.4026C98.9586 71.4026 106.31 64.0207 106.31 54.9147C106.31 45.8087 98.9586 38.4268 89.8899 38.4268C80.8213 38.4268 73.4697 45.8087 73.4697 54.9147C73.4697 64.0207 80.8213 71.4026 89.8899 71.4026Z" fill="#FFA400"/>
<path d="M89.9263 72.0751C88.8049 72.0751 87.6763 71.9655 86.5549 71.7388C77.3144 69.8889 71.2997 60.8443 73.1347 51.5658C74.0231 47.0691 76.6081 43.1939 80.4019 40.6494C84.1956 38.1049 88.7467 37.191 93.225 38.0903C97.7032 38.9823 101.563 41.578 104.097 45.3874C106.631 49.1968 107.534 53.7739 106.645 58.2633C105.757 62.76 103.172 66.6352 99.378 69.1797C96.5381 71.0881 93.2686 72.0751 89.9263 72.0751ZM89.8608 39.092C86.7806 39.092 83.766 40.006 81.1446 41.7608C77.6421 44.1079 75.2682 47.6833 74.4454 51.829C72.7487 60.3837 78.2974 68.7337 86.8243 70.4373C90.953 71.2635 95.1546 70.4227 98.6498 68.0756C102.152 65.7286 104.526 62.1531 105.349 58.0074C106.172 53.8617 105.334 49.6428 102.997 46.1332C100.66 42.6163 97.0988 40.2326 92.9701 39.4064C91.9361 39.2017 90.8948 39.0993 89.8608 39.0993V39.092Z" fill="#414042"/>
<path d="M108.808 66.5547C109.82 65.904 110.992 66.3866 111.713 65.3922C116.57 58.7385 111.335 49.2845 103.529 51.8948C100.317 52.9696 98.4897 55.4336 98.4096 58.7678C98.3367 61.8094 98.4969 62.3359 100.587 64.4929L104.643 67.1836L108.808 66.5474V66.5547Z" fill="white"/>
<path d="M109.529 67.9367C109.318 67.9367 109.114 67.8416 108.99 67.6588C108.779 67.3591 108.844 66.9423 109.143 66.7303C110.031 66.1015 111.269 65.0193 111.91 64.1492C113.359 62.1605 113.643 59.3674 112.667 56.662C111.466 53.3206 107.621 51.3391 104.293 52.3335C101.213 53.2475 99.0358 56.8595 98.7736 59.6818C98.5115 62.5187 101.133 64.6684 103.711 65.0339C104.075 65.0851 104.33 65.4215 104.279 65.7871C104.228 66.1526 103.893 66.4012 103.529 66.3574C100.346 65.904 97.1207 63.1841 97.4556 59.5648C97.7615 56.238 100.259 52.1434 103.922 51.0613C107.912 49.8768 112.485 52.2385 113.92 56.216C115.048 59.3381 114.699 62.5992 112.988 64.9462C112.157 66.0868 110.672 67.2933 109.922 67.827C109.805 67.9075 109.674 67.9513 109.536 67.9513L109.529 67.9367Z" fill="#414042"/>
<path d="M27.3763 69.3036C21.9515 60.5662 15.9149 52.7061 17.08 40.8977C17.4368 37.293 20.2548 34.2513 24.1578 34.9167C26.5316 35.3188 28.4103 37.0517 29.7065 38.9381C31.2283 41.1609 35.0585 46.1402 37.5343 48.012" fill="white"/>
<path d="M27.3765 69.9694C27.1581 69.9694 26.9396 69.8598 26.8158 69.655C26.2333 68.7191 25.6435 67.7905 25.0537 66.8619C20.0657 59.0092 15.3544 51.5951 16.4175 40.8323C16.636 38.6388 17.6773 36.6792 19.272 35.4509C20.6992 34.3541 22.4249 33.9446 24.2599 34.259C27.1071 34.7489 29.0804 36.8693 30.2382 38.5583C31.6145 40.5764 35.4665 45.6214 37.9204 47.4786C38.2117 47.698 38.2699 48.1147 38.0515 48.4145C37.833 48.707 37.418 48.7655 37.1195 48.5461C34.5126 46.5647 30.6242 41.4757 29.146 39.3114C28.1338 37.8272 26.4226 35.9773 24.0342 35.5678C22.5633 35.3193 21.1943 35.641 20.0729 36.5037C18.7695 37.5054 17.9103 39.1286 17.7355 40.9566C16.7161 51.2588 21.3108 58.49 26.1677 66.1381C26.7576 67.0667 27.3474 67.9953 27.9372 68.9385C28.1338 69.2529 28.0391 69.6623 27.726 69.8597C27.6168 69.9256 27.493 69.9621 27.3765 69.9621V69.9694Z" fill="#414042"/>
<path d="M87.2685 63.9738C86.9917 63.7398 86.7878 63.4474 86.6568 63.1037C86.5257 62.7601 86.4966 62.4018 86.5694 62.0289C86.6204 61.6633 86.766 61.3489 87.0063 61.0711C87.2466 60.7932 87.5306 60.5958 87.8728 60.4715C88.2078 60.3472 88.5646 60.318 88.9359 60.3838C89.2855 60.4423 89.6059 60.5885 89.8826 60.8225C90.1593 61.0564 90.3632 61.3416 90.4942 61.6779C90.6253 62.0216 90.6617 62.3652 90.6107 62.7235C90.5379 63.0964 90.385 63.4181 90.1447 63.7033C89.9044 63.9884 89.6204 64.1932 89.2782 64.3175C88.936 64.4491 88.5937 64.4783 88.2369 64.4198C87.8655 64.354 87.5452 64.2078 87.2685 63.9738ZM90.6981 59.2358L87.6325 58.7094L89.4093 46.3892L93.1375 47.0326L90.6981 59.2431V59.2358Z" fill="white"/>
</g>
</svg>
