<svg width="96" height="20" viewBox="0 0 96 20" fill="none" xmlns="http://www.w3.org/2000/svg">
<g clip-path="url(#clip0_923_56097)">
<path d="M69.8891 5.70098C70.9223 5.70098 71.7599 4.87249 71.7599 3.85049C71.7599 2.82849 70.9223 2 69.8891 2C68.856 2 68.0184 2.82849 68.0184 3.85049C68.0184 4.87249 68.856 5.70098 69.8891 5.70098Z" fill="#FF9B00"/>
<path d="M11.401 9.40328H8.09309V11.7718H11.0085C12.1408 11.7718 12.4006 12.1587 12.4006 12.8905C12.4006 14.0105 11.1822 15.3443 8.65788 15.3443C5.78485 15.3443 4.04539 13.0623 4.04539 10.48C4.04539 7.76787 5.91611 5.61574 8.65788 5.61574C10.1375 5.61574 11.2684 6.13246 12.5306 7.1659L14.3589 5.27213C13.0092 3.89377 10.921 2.99016 8.65788 2.99016C4.17664 2.99016 1 6.39082 1 10.48C1 15.0859 4.52533 17.9698 8.65921 17.9698C12.227 17.9698 15.0987 15.7325 15.0987 12.4603C15.0987 10.223 13.6191 9.40328 11.3997 9.40328H11.401Z" fill="#FF9B00"/>
<path d="M68.5395 17.4964H71.2812V6.86426H68.5395V17.4964Z" fill="#FF9B00"/>
<path d="M78.7668 8.84459C80.2026 8.84459 80.8987 9.57639 81.3773 10.0931L83.2056 8.4577C82.2046 7.12262 80.6812 6.30557 78.7668 6.30557C75.2839 6.30557 72.9345 8.75934 72.9345 11.9882C72.9345 15.217 75.2839 17.6275 78.7668 17.6275C80.6375 17.6275 82.2908 16.8092 83.2056 15.6039L81.5085 13.8387C80.9424 14.3987 79.8977 15.0872 78.7668 15.0872C77.0684 15.0872 75.7201 13.8387 75.7201 11.9882C75.7201 10.1377 77.0684 8.8459 78.7668 8.8459V8.84459Z" fill="#FF9B00"/>
<path d="M90.1674 6.56262C89.2977 6.56262 88.0355 6.86426 87.252 7.55279V2.64525H84.5539V17.4964H87.2957V11.5554C87.2957 9.96328 88.3842 9.14492 89.7326 9.14492C91.0809 9.14492 92.1694 10.0485 92.1694 11.5554V17.4964H94.9549V11.5554C94.9112 8.75803 93.3016 6.56262 90.1674 6.56262Z" fill="#FF9B00"/>
<path d="M66.3201 7.76787C66.3201 4.71082 64.0131 2.60197 60.8803 2.60197C57.9648 2.60197 55.4405 4.49574 55.4405 7.93967V17.4964H58.1822V12.1587L63.4483 17.4964H67.0174L62.2299 12.6321C64.6668 12.1167 66.3201 10.0498 66.3201 7.76787ZM58.1385 7.76787C58.1385 6.08918 59.4006 5.09902 60.8803 5.09902C62.3599 5.09902 63.622 6.13246 63.622 7.76787C63.622 9.31803 62.3599 10.4367 60.8803 10.4367C59.4006 10.4367 58.1385 9.31803 58.1385 7.76787Z" fill="#FF9B00"/>
<path d="M34.6822 6.69246C31.4181 6.69246 28.8076 9.05967 28.8076 12.2885C28.8076 15.5174 31.3306 17.9279 34.6822 17.9279C38.0339 17.9279 40.6006 15.5607 40.6006 12.2885C40.6006 9.01639 38.0326 6.69246 34.6822 6.69246ZM34.6822 15.5593C32.8977 15.5593 31.5056 14.0105 31.5056 12.2872C31.5056 10.5639 32.8553 9.05836 34.6822 9.05836C36.5092 9.05836 37.9026 10.5652 37.9026 12.2872C37.9026 14.0092 36.598 15.5593 34.6822 15.5593Z" fill="#FF9B00"/>
<path d="M50.5668 7.68131C49.697 7.03607 48.4335 6.69246 47.3026 6.69246C44.126 6.69246 41.4717 9.05967 41.4717 12.2452C41.4717 15.4308 44.0822 17.9279 47.3026 17.9279C50.828 17.9279 53.221 15.6892 53.221 11.9436V2.64525H50.5668V7.68131ZM47.3026 15.5593C45.6056 15.5593 44.1697 14.0957 44.1697 12.2452C44.1697 10.3948 45.6056 9.05967 47.3026 9.05967C49.3046 9.05967 50.5668 10.6098 50.5668 12.2885C50.5668 13.9672 49.3483 15.5607 47.3026 15.5607V15.5593Z" fill="#FF9B00"/>
<path d="M22.0194 6.69246C18.7553 6.69246 16.1447 9.05967 16.1447 12.2885C16.1447 15.5174 18.6691 17.9279 22.0194 17.9279C25.3697 17.9279 27.9378 15.5607 27.9378 12.2885C27.9378 9.01639 25.3697 6.69246 22.0194 6.69246ZM22.0194 15.5593C20.2362 15.5593 18.8428 14.0105 18.8428 12.2872C18.8428 10.5639 20.1924 9.05836 22.0194 9.05836C23.8464 9.05836 25.2398 10.5652 25.2398 12.2872C25.2398 14.0092 23.9339 15.5593 22.0194 15.5593Z" fill="#FF9B00"/>
</g>
<defs>
<clipPath id="clip0_923_56097">
<rect width="94" height="16" fill="white" transform="translate(1 2)"/>
</clipPath>
</defs>
</svg>
