<svg width="20" height="20" viewBox="0 0 20 20" fill="none" xmlns="http://www.w3.org/2000/svg">
<mask id="mask0_923_56146" style="mask-type:alpha" maskUnits="userSpaceOnUse" x="2" y="2" width="16" height="16">
<rect x="2" y="2" width="16" height="16" fill="#D9D9D9"/>
</mask>
<g mask="url(#mask0_923_56146)">
<path opacity="0.902" d="M10.5 3C6.3575 3 3 5.77886 3 9.20691C3.05302 10.2996 3.38663 11.3558 3.96446 12.2603C4.54228 13.1647 5.34212 13.8826 6.27667 14.3357L5.44334 17.5923C5.42792 17.6567 5.43125 17.7245 5.4529 17.7868C5.47456 17.849 5.51351 17.9028 5.56454 17.9409C5.61558 17.979 5.67629 17.9996 5.7386 18C5.80091 18.0004 5.86184 17.9806 5.91331 17.9431L9.56082 15.3676C9.86832 15.3996 10.1817 15.4183 10.5 15.4183C14.6425 15.4183 18 12.6394 18 9.21136C18 5.7833 14.6425 3.00444 10.5 3.00444" fill="#222222"/>
</g>
</svg>
