<svg width="44" height="44" viewBox="0 0 44 44" fill="none" xmlns="http://www.w3.org/2000/svg">
<g clip-path="url(#clip0_990_60653)">
<rect width="44" height="44" fill="#7C7366"/>
<path d="M35.5482 22.2645L35.3046 22.1121C34.4802 21.2852 33.3299 20.9251 31.7914 21.0148C30.512 21.0942 29.4971 21.6047 28.7215 22.0755C28.7215 22.0641 28.7215 22.0526 28.7215 22.0421C28.7215 21.6392 28.7653 21.2038 28.8121 20.781C28.8558 20.3498 28.9027 19.9113 28.9027 19.499C28.9027 19.0866 28.8548 18.6721 28.709 18.3318C28.6716 18.243 28.5935 18.1898 28.4894 18.1898C28.0751 18.1992 27.2683 18.4832 27.0726 18.6575L26.9665 18.8872C26.9602 19.3486 26.8592 20.6296 26.7583 20.7873C26.7614 20.782 26.7041 20.9407 26.7041 20.9407C26.5282 22.7719 26.5261 24.3828 26.6864 25.765C26.7052 25.9049 26.9686 26.1116 27.1747 26.1868C27.3995 26.2692 28.1032 26.0824 28.5081 25.9289C28.5029 25.9289 28.6601 25.9049 28.6601 25.9049C28.7892 25.8871 28.8631 25.7828 28.8589 25.6345C28.8569 25.6324 28.8683 25.2367 28.8683 25.2367C29.1608 24.0435 30.3475 22.6205 31.7476 22.4054C32.5409 22.2791 33.1644 22.4837 33.6599 23.0235C33.7276 23.1216 33.8702 23.9808 33.3476 24.9664C32.9604 25.6961 32.1817 26.3152 31.1595 26.6973C30.1935 27.0658 29.1265 27.2151 27.8117 27.1702C27.7566 27.1337 26.5792 26.335 26.5792 26.335C25.5372 25.6021 24.2391 24.6845 23.0649 24.2397C22.8598 24.1604 22.4893 23.8524 22.2654 23.6687L22.1457 23.5674C21.467 23.0224 20.1783 22.1591 19.1425 21.469C19.1425 21.469 18.6741 21.1547 18.5835 21.0942C18.5835 21.0556 18.5856 20.9773 18.5856 20.9773C18.6158 20.9428 19.2664 20.5524 19.2664 20.5524C20.1783 20.0178 20.5989 19.7558 20.6884 19.619C20.6696 19.642 20.8091 19.5491 20.8091 19.5491C20.8164 19.5449 23.067 18.2671 23.067 18.2671C25.2364 17.0717 27.692 15.7155 28.9828 14.3771C28.9828 14.3751 29.0442 14.1715 29.0442 14.1715L29.0734 13.9888C29.1577 13.7038 29.164 13.4835 29.0911 13.2308C29.0734 13.1578 29.0057 13.0711 28.9162 13.0555C27.9106 12.9552 26.6105 13.5597 25.4258 14.6736C25.1614 14.9242 24.9366 15.0474 24.6982 15.1758L24.5181 15.2771C23.2138 16.0214 20.2751 17.8505 18.7366 18.836C18.8386 17.1792 19.1457 14.8208 19.5215 12.8519L19.4798 12.618C19.4756 12.6097 19.3205 12.3205 19.3205 12.3205L19.2019 12.1096L19.1654 12.0992C18.8594 11.9436 18.6096 12.0062 18.4243 12.0522L18.1182 12.167L17.7081 12.3142C17.6279 12.3309 17.5707 12.3821 17.5384 12.4604C16.8056 14.2404 16.1914 17.1688 16.0457 19.5115C14.5779 18.5761 13.2225 17.9017 12.5574 17.5759L12.5397 17.5655L12.4606 17.5488C12.2211 17.5154 11.9276 17.34 11.6496 17.1698C11.6184 17.151 11.0896 16.8086 11.0896 16.8086L10.236 16.2595C10.2433 16.2657 10.0112 16.2073 10.0112 16.2073C9.64369 16.2709 8.94312 16.7439 8.73284 17.0686C8.70682 17.1114 8.69433 17.1573 8.69433 17.2064C8.69433 17.2711 8.71515 17.3421 8.73284 17.4068L8.77032 17.5822L8.81092 17.6866C9.21898 18.1073 10.2506 18.8058 11.2624 19.3528L12.4356 19.974L14.2292 20.9595C14.2292 20.9658 14.5342 21.2017 14.5342 21.2017L14.7476 21.3228C14.7476 21.3228 14.7715 21.3385 14.785 21.3479C14.3062 21.6694 11.5216 23.535 11.5216 23.535L9.80504 24.6751C9.64161 24.7868 8.96394 25.0906 8.81508 25.1501C8.44345 25.3025 8.16343 25.5343 8.04476 25.789L8 25.8861L8.04476 25.955L8.17696 26.0521C8.17072 26.0521 8.35081 26.168 8.35081 26.168L8.54026 26.2995L8.71931 26.3277C9.02119 26.3382 9.46777 26.1649 10.3037 25.7984C11.0709 25.457 13.1549 24.1969 14.046 23.6582L14.4269 23.4296C14.5841 23.4411 14.7559 23.3095 14.91 23.1926C15.089 23.0485 15.4773 22.8095 15.7146 22.7051C15.7219 22.6998 15.8572 22.6257 15.9853 22.5537C15.9853 22.5954 15.9842 22.656 15.9842 22.656C16.0228 25.3902 16.181 27.378 16.4787 28.9105L16.4818 28.9377L16.5099 28.9993C16.6588 29.2154 16.8253 29.8637 16.9732 30.4327L17.3125 31.5748C17.3198 31.5884 17.4072 31.6823 17.4072 31.6823C17.6019 31.8139 18.1911 32.0415 18.5856 31.9935L18.6856 31.982L18.748 31.8442C18.7824 31.6729 18.7938 31.5059 18.7938 31.3232C18.7938 31.1123 18.7782 30.8816 18.7584 30.6008L18.7334 30.1905C18.6075 28.2821 18.4826 25.5249 18.4826 23.6937V23.5476C18.8063 23.7511 20.2199 24.6448 20.2199 24.6448C22.6277 26.2108 26.2638 28.5786 28.4592 29.2029C28.5737 29.2384 28.6945 29.2102 28.7788 29.1298C28.783 29.1267 29.1182 28.9126 29.1182 28.9126L29.1806 28.8865C29.3066 28.826 29.3909 28.613 29.4065 28.3833C31.2584 28.2894 33.8421 27.5732 35.2234 25.8308C35.7595 25.1553 36 24.3285 36 23.6206C36 23.0391 35.8397 22.5391 35.5472 22.2624" fill="#F8B500"/>
</g>
<rect x="0.5" y="0.5" width="43" height="43" rx="21.5" stroke="black" stroke-opacity="0.08"/>
<defs>
<clipPath id="clip0_990_60653">
<rect width="44" height="44" rx="22" fill="white"/>
</clipPath>
</defs>
</svg>
