<svg width="94" height="16" viewBox="0 0 94 16" fill="none" xmlns="http://www.w3.org/2000/svg">
<g clip-path="url(#clip0_1034_58258)">
<path d="M68.8891 3.70098C69.9223 3.70098 70.7599 2.87249 70.7599 1.85049C70.7599 0.828493 69.9223 0 68.8891 0C67.856 0 67.0184 0.828493 67.0184 1.85049C67.0184 2.87249 67.856 3.70098 68.8891 3.70098Z" fill="#FF9B00"/>
<path d="M10.401 7.40328H7.09309V9.7718H10.0085C11.1408 9.7718 11.4006 10.1587 11.4006 10.8905C11.4006 12.0105 10.1822 13.3443 7.65788 13.3443C4.78485 13.3443 3.04539 11.0623 3.04539 8.48C3.04539 5.76787 4.91611 3.61574 7.65788 3.61574C9.13749 3.61574 10.2684 4.13246 11.5306 5.1659L13.3589 3.27213C12.0092 1.89377 9.92104 0.990164 7.65788 0.990164C3.17664 0.990164 0 4.39082 0 8.48C0 13.0859 3.52533 15.9698 7.65921 15.9698C11.227 15.9698 14.0987 13.7325 14.0987 10.4603C14.0987 8.22295 12.6191 7.40328 10.3997 7.40328H10.401Z" fill="#FF9B00"/>
<path d="M67.5395 15.4964H70.2812V4.86426H67.5395V15.4964Z" fill="#FF9B00"/>
<path d="M77.7668 6.84459C79.2026 6.84459 79.8987 7.57639 80.3773 8.09311L82.2056 6.4577C81.2046 5.12262 79.6812 4.30557 77.7668 4.30557C74.2839 4.30557 71.9345 6.75934 71.9345 9.9882C71.9345 13.217 74.2839 15.6275 77.7668 15.6275C79.6375 15.6275 81.2908 14.8092 82.2056 13.6039L80.5085 11.8387C79.9424 12.3987 78.8977 13.0872 77.7668 13.0872C76.0684 13.0872 74.7201 11.8387 74.7201 9.9882C74.7201 8.1377 76.0684 6.8459 77.7668 6.8459V6.84459Z" fill="#FF9B00"/>
<path d="M89.1674 4.56262C88.2977 4.56262 87.0355 4.86426 86.252 5.55279V0.645246H83.5539V15.4964H86.2957V9.55541C86.2957 7.96328 87.3842 7.14492 88.7326 7.14492C90.0809 7.14492 91.1694 8.04852 91.1694 9.55541V15.4964H93.9549V9.55541C93.9112 6.75803 92.3016 4.56262 89.1674 4.56262Z" fill="#FF9B00"/>
<path d="M65.3201 5.76787C65.3201 2.71082 63.0131 0.601967 59.8803 0.601967C56.9648 0.601967 54.4405 2.49574 54.4405 5.93967V15.4964H57.1822V10.1587L62.4483 15.4964H66.0174L61.2299 10.6321C63.6668 10.1167 65.3201 8.04984 65.3201 5.76787ZM57.1385 5.76787C57.1385 4.08918 58.4006 3.09902 59.8803 3.09902C61.3599 3.09902 62.622 4.13246 62.622 5.76787C62.622 7.31803 61.3599 8.43672 59.8803 8.43672C58.4006 8.43672 57.1385 7.31803 57.1385 5.76787Z" fill="#FF9B00"/>
<path d="M33.6822 4.69246C30.4181 4.69246 27.8076 7.05967 27.8076 10.2885C27.8076 13.5174 30.3306 15.9279 33.6822 15.9279C37.0339 15.9279 39.6006 13.5607 39.6006 10.2885C39.6006 7.01639 37.0326 4.69246 33.6822 4.69246ZM33.6822 13.5593C31.8977 13.5593 30.5056 12.0105 30.5056 10.2872C30.5056 8.56393 31.8553 7.05836 33.6822 7.05836C35.5092 7.05836 36.9026 8.56525 36.9026 10.2872C36.9026 12.0092 35.598 13.5593 33.6822 13.5593Z" fill="#FF9B00"/>
<path d="M49.5668 5.68131C48.697 5.03607 47.4335 4.69246 46.3026 4.69246C43.126 4.69246 40.4717 7.05967 40.4717 10.2452C40.4717 13.4308 43.0822 15.9279 46.3026 15.9279C49.828 15.9279 52.221 13.6892 52.221 9.94361V0.645246H49.5668V5.68131ZM46.3026 13.5593C44.6056 13.5593 43.1697 12.0957 43.1697 10.2452C43.1697 8.39475 44.6056 7.05967 46.3026 7.05967C48.3046 7.05967 49.5668 8.60984 49.5668 10.2885C49.5668 11.9672 48.3483 13.5607 46.3026 13.5607V13.5593Z" fill="#FF9B00"/>
<path d="M21.0194 4.69246C17.7553 4.69246 15.1447 7.05967 15.1447 10.2885C15.1447 13.5174 17.6691 15.9279 21.0194 15.9279C24.3697 15.9279 26.9378 13.5607 26.9378 10.2885C26.9378 7.01639 24.3697 4.69246 21.0194 4.69246ZM21.0194 13.5593C19.2362 13.5593 17.8428 12.0105 17.8428 10.2872C17.8428 8.56393 19.1924 7.05836 21.0194 7.05836C22.8464 7.05836 24.2398 8.56525 24.2398 10.2872C24.2398 12.0092 22.9339 13.5593 21.0194 13.5593Z" fill="#FF9B00"/>
</g>
<defs>
<clipPath id="clip0_1034_58258">
<rect width="94" height="16" fill="white"/>
</clipPath>
</defs>
</svg>
