<svg width="300" height="170" viewBox="0 0 300 170" fill="none" xmlns="http://www.w3.org/2000/svg">
<g filter="url(#filter0_d_923_57708)">
<g clip-path="url(#clip0_923_57708)">
<mask id="path-1-inside-1_923_57708" fill="white">
<path d="M13 43.7118C13 39.4527 16.4527 36 20.7118 36H272.595C276.854 36 280.307 39.4527 280.307 43.7118V159H13V43.7118Z"/>
</mask>
<mask id="path-3-inside-2_923_57708" fill="white">
<path d="M13 36H280.307V100.221H13V36Z"/>
</mask>
<path d="M13 36H280.307V100.221H13V36Z" fill="white"/>
<path d="M280.307 98.9361H13V101.507H280.307V98.9361Z" fill="#F1F3F9" mask="url(#path-3-inside-2_923_57708)"/>
<mask id="path-5-inside-3_923_57708" fill="white">
<path d="M13 36H102.102V100.221H13V36Z"/>
</mask>
<path d="M102.102 97.6508H13V102.792H102.102V97.6508Z" fill="#FF9B00" mask="url(#path-5-inside-3_923_57708)"/>
<g clip-path="url(#clip1_923_57708)">
<rect width="28.2767" height="28.2767" transform="translate(43.4131 45.252)" fill="white"/>
<path d="M62.0499 60.676H59.7129L59.117 58.6594H55.9856L55.4013 60.676H53.0527L56.3361 50.3936H58.7665L62.0499 60.676ZM57.5396 53.3247L56.5464 56.7248H58.5445L57.5396 53.3247Z" fill="#FF5A5A"/>
<path d="M57.5177 67.5916V68.08H52.3637V67.5916H54.6258V66.4348H52.9549V63.5429H53.5461V64.5068H56.3095V63.5429H56.9008V66.4348H55.217V67.5916H57.5177ZM53.5461 65.9592H56.3095V64.9953H53.5461V65.9592ZM62.2879 63.1573V66.5633H61.6966V65.3423H60.8098V64.841H61.6966V63.1573H62.2879ZM57.6094 64.1984V63.7099H58.9589V63.1059H59.5502V63.7099H60.8997V64.1984H57.6094ZM57.9307 65.458C57.9307 64.8667 58.4834 64.449 59.2545 64.4554C60.0257 64.449 60.572 64.8667 60.5784 65.458C60.572 66.0621 60.0257 66.4605 59.2545 66.4605C58.4834 66.4605 57.9307 66.0621 57.9307 65.458ZM58.5091 65.458C58.5026 65.7986 58.8047 66.0106 59.2545 66.0106C59.698 66.0106 60 65.7986 60 65.458C60 65.1238 59.698 64.9053 59.2545 64.9053C58.8047 64.9053 58.5026 65.1238 58.5091 65.458ZM58.5733 68.7098V66.8461H62.2879V68.7098H58.5733ZM59.1646 68.2214H61.6966V67.3088H59.1646V68.2214Z" fill="#FF5A5A"/>
</g>
<rect x="43.7344" y="45.5733" width="27.634" height="27.634" rx="13.817" stroke="black" stroke-opacity="0.08" stroke-width="0.642652"/>
<path d="M36.3033 89.67C34.3403 89.67 32.9363 88.604 32.8973 87.044H34.5613C34.6003 87.785 35.3413 88.279 36.3033 88.266C37.3043 88.279 38.0323 87.72 38.0453 86.914C38.0323 86.069 37.3303 85.484 36.1213 85.484H35.3153V84.21H36.1213C37.1093 84.21 37.7853 83.664 37.7853 82.858C37.7853 82.091 37.2003 81.571 36.3033 81.558C35.4453 81.571 34.7043 82.052 34.6653 82.832H33.0793C33.1183 81.285 34.5223 80.219 36.3293 80.232C38.1883 80.219 39.3973 81.363 39.3713 82.78C39.3973 83.807 38.7083 84.548 37.7073 84.756V84.834C39.0073 85.003 39.7353 85.835 39.7353 86.992C39.7353 88.539 38.2793 89.67 36.3033 89.67ZM44.2212 89.67C42.4142 89.657 40.6202 88.591 40.6332 85.198C40.6332 82.052 42.0632 80.219 44.3252 80.232C46.0802 80.219 47.3022 81.337 47.4972 82.832H45.8852C45.7032 82.117 45.1442 81.649 44.3252 81.662C42.9732 81.649 42.2322 82.832 42.2452 84.782H42.3232C42.7912 83.976 43.6752 83.508 44.6892 83.508C46.3272 83.508 47.6012 84.756 47.6012 86.498C47.6012 88.318 46.2492 89.683 44.2212 89.67ZM42.4272 86.55C42.4142 87.499 43.1682 88.331 44.2212 88.318C45.2352 88.331 46.0022 87.538 45.9892 86.524C46.0022 85.549 45.2612 84.769 44.2212 84.756C43.2072 84.769 42.4272 85.588 42.4272 86.55ZM50.0809 88.63L49.0409 92.192H47.8189L48.4689 88.63H50.0809ZM54.6015 89.67C52.7555 89.67 51.4035 88.565 51.3515 87.044H52.9635C53.0285 87.798 53.7305 88.331 54.6015 88.318C55.6285 88.331 56.3695 87.59 56.3695 86.576C56.3695 85.523 55.6025 84.769 54.5495 84.756C53.8345 84.756 53.3015 85.016 53.0155 85.562H51.4815L52.0275 80.336H57.4615V81.74H53.4055L53.1195 84.184H53.1975C53.5615 83.768 54.2375 83.482 54.9915 83.482C56.6945 83.482 57.9685 84.743 57.9555 86.524C57.9685 88.357 56.5775 89.67 54.6015 89.67ZM62.3676 89.67C60.1446 89.67 58.8316 87.954 58.8316 84.938C58.8316 81.948 60.1576 80.219 62.3676 80.232C64.5646 80.219 65.8906 81.948 65.9036 84.938C65.8906 87.954 64.5646 89.67 62.3676 89.67ZM60.4956 84.938C60.4956 87.148 61.2106 88.279 62.3676 88.266C63.5116 88.279 64.2266 87.148 64.2136 84.938C64.2266 82.754 63.5116 81.597 62.3676 81.584C61.2106 81.597 60.4956 82.754 60.4956 84.938ZM70.2577 89.67C68.0347 89.67 66.7217 87.954 66.7217 84.938C66.7217 81.948 68.0477 80.219 70.2577 80.232C72.4547 80.219 73.7807 81.948 73.7937 84.938C73.7807 87.954 72.4547 89.67 70.2577 89.67ZM68.3857 84.938C68.3857 87.148 69.1007 88.279 70.2577 88.266C71.4017 88.279 72.1167 87.148 72.1037 84.938C72.1167 82.754 71.4017 81.597 70.2577 81.584C69.1007 81.597 68.3857 82.754 68.3857 84.938Z" fill="#FF9B00"/>
<path d="M82.7679 81.394V87.388H81.7779V86.704H80.2299V86.02H81.7779V81.394H82.7679ZM76.0719 84.958C77.5299 84.949 79.5009 84.931 81.1839 84.724L81.2379 85.426C80.5899 85.534 79.9059 85.606 79.2399 85.651V87.172H78.2679V85.705C77.5209 85.732 76.8099 85.732 76.1799 85.732L76.0719 84.958ZM76.6659 83.086C76.6749 82.24 77.4759 81.673 78.6639 81.682C79.8159 81.673 80.6259 82.24 80.6259 83.086C80.6259 83.932 79.8159 84.481 78.6639 84.472C77.4849 84.481 76.6749 83.932 76.6659 83.086ZM77.1159 89.17V86.812H78.1059V88.378H82.9479V89.17H77.1159ZM77.6019 83.086C77.5929 83.518 78.0249 83.761 78.6639 83.77C79.2669 83.761 79.6989 83.518 79.7079 83.086C79.6989 82.654 79.2669 82.393 78.6639 82.402C78.0249 82.393 77.5929 82.654 77.6019 83.086Z" fill="#FF9B00"/>
<g clip-path="url(#clip2_923_57708)">
<rect width="28.2767" height="28.2767" transform="translate(132.516 45.252)" fill="white"/>
<path d="M147.586 60.9973H143.44V50.0723H147.26C149.465 50.0723 150.791 51.1187 150.791 53.1617V53.3112C150.791 54.2704 150.417 54.968 149.646 55.4165C150.682 55.84 151.152 56.6622 151.152 57.8207V57.9079C151.152 60.2125 149.73 60.9973 147.586 60.9973ZM145.766 52.1402V54.5444H147.32C148.116 54.5444 148.465 54.1084 148.465 53.4357V53.2489C148.465 52.5762 148.116 52.1402 147.32 52.1402H145.766ZM145.766 56.5252V58.9294H147.682C148.417 58.9294 148.827 58.5308 148.827 57.8083V57.6463C148.827 56.9113 148.417 56.5252 147.682 56.5252H145.766Z" fill="#299B9B"/>
<path d="M147.263 67.9129V68.4013H142.109V67.9129H144.371V66.7561H142.7V63.8641H143.291V64.8281H146.055V63.8641H146.646V66.7561H144.962V67.9129H147.263ZM143.291 66.2805H146.055V65.3165H143.291V66.2805ZM152.033 63.4786V66.8846H151.442V65.6636H150.555V65.1623H151.442V63.4786H152.033ZM147.354 64.5197V64.0312H148.704V63.4271H149.295V64.0312H150.645V64.5197H147.354ZM147.676 65.7792C147.676 65.188 148.228 64.7703 149 64.7767C149.771 64.7703 150.317 65.188 150.324 65.7792C150.317 66.3833 149.771 66.7818 149 66.7818C148.228 66.7818 147.676 66.3833 147.676 65.7792ZM148.254 65.7792C148.248 66.1199 148.55 66.3319 149 66.3319C149.443 66.3319 149.745 66.1199 149.745 65.7792C149.745 65.4451 149.443 65.2266 149 65.2266C148.55 65.2266 148.248 65.4451 148.254 65.7792ZM148.318 69.0311V67.1674H152.033V69.0311H148.318ZM148.91 68.5427H151.442V67.6301H148.91V68.5427Z" fill="#299B9B"/>
</g>
<rect x="132.837" y="45.5733" width="27.634" height="27.634" rx="13.817" stroke="black" stroke-opacity="0.08" stroke-width="0.642652"/>
<path d="M125.406 89.67C123.443 89.67 122.039 88.604 122 87.044H123.664C123.703 87.785 124.444 88.279 125.406 88.266C126.407 88.279 127.135 87.72 127.148 86.914C127.135 86.069 126.433 85.484 125.224 85.484H124.418V84.21H125.224C126.212 84.21 126.888 83.664 126.888 82.858C126.888 82.091 126.303 81.571 125.406 81.558C124.548 81.571 123.807 82.052 123.768 82.832H122.182C122.221 81.285 123.625 80.219 125.432 80.232C127.291 80.219 128.5 81.363 128.474 82.78C128.5 83.807 127.811 84.548 126.81 84.756V84.834C128.11 85.003 128.838 85.835 128.838 86.992C128.838 88.539 127.382 89.67 125.406 89.67ZM133.142 80.232C134.936 80.232 136.717 81.311 136.73 84.652C136.73 87.837 135.287 89.67 133.038 89.67C131.257 89.67 130.035 88.565 129.84 87.044H131.478C131.647 87.772 132.206 88.24 133.038 88.24C134.364 88.24 135.118 87.057 135.118 85.094H135.014C134.559 85.887 133.675 86.355 132.674 86.368C131.023 86.355 129.749 85.107 129.762 83.378C129.749 81.571 131.101 80.206 133.142 80.232ZM131.348 83.326C131.361 84.314 132.089 85.094 133.116 85.094C134.143 85.094 134.936 84.275 134.936 83.326C134.923 82.377 134.182 81.558 133.142 81.558C132.115 81.558 131.348 82.351 131.348 83.326ZM139.209 88.63L138.169 92.192H136.947L137.597 88.63H139.209ZM143.604 89.67C141.641 89.67 140.237 88.604 140.198 87.044H141.862C141.901 87.785 142.642 88.279 143.604 88.266C144.605 88.279 145.333 87.72 145.346 86.914C145.333 86.069 144.631 85.484 143.422 85.484H142.616V84.21H143.422C144.41 84.21 145.086 83.664 145.086 82.858C145.086 82.091 144.501 81.571 143.604 81.558C142.746 81.571 142.005 82.052 141.966 82.832H140.38C140.419 81.285 141.823 80.219 143.63 80.232C145.489 80.219 146.698 81.363 146.672 82.78C146.698 83.807 146.009 84.548 145.008 84.756V84.834C146.308 85.003 147.036 85.835 147.036 86.992C147.036 88.539 145.58 89.67 143.604 89.67ZM151.47 89.67C149.247 89.67 147.934 87.954 147.934 84.938C147.934 81.948 149.26 80.219 151.47 80.232C153.667 80.219 154.993 81.948 155.006 84.938C154.993 87.954 153.667 89.67 151.47 89.67ZM149.598 84.938C149.598 87.148 150.313 88.279 151.47 88.266C152.614 88.279 153.329 87.148 153.316 84.938C153.329 82.754 152.614 81.597 151.47 81.584C150.313 81.597 149.598 82.754 149.598 84.938ZM159.36 89.67C157.137 89.67 155.824 87.954 155.824 84.938C155.824 81.948 157.15 80.219 159.36 80.232C161.557 80.219 162.883 81.948 162.896 84.938C162.883 87.954 161.557 89.67 159.36 89.67ZM157.488 84.938C157.488 87.148 158.203 88.279 159.36 88.266C160.504 88.279 161.219 87.148 161.206 84.938C161.219 82.754 160.504 81.597 159.36 81.584C158.203 81.597 157.488 82.754 157.488 84.938Z" fill="#B0B0B0"/>
<path d="M171.87 81.394V87.388H170.88V86.704H169.332V86.02H170.88V81.394H171.87ZM165.174 84.958C166.632 84.949 168.603 84.931 170.286 84.724L170.34 85.426C169.692 85.534 169.008 85.606 168.342 85.651V87.172H167.37V85.705C166.623 85.732 165.912 85.732 165.282 85.732L165.174 84.958ZM165.768 83.086C165.777 82.24 166.578 81.673 167.766 81.682C168.918 81.673 169.728 82.24 169.728 83.086C169.728 83.932 168.918 84.481 167.766 84.472C166.587 84.481 165.777 83.932 165.768 83.086ZM166.218 89.17V86.812H167.208V88.378H172.05V89.17H166.218ZM166.704 83.086C166.695 83.518 167.127 83.761 167.766 83.77C168.369 83.761 168.801 83.518 168.81 83.086C168.801 82.654 168.369 82.393 167.766 82.402C167.127 82.393 166.695 82.654 166.704 83.086Z" fill="#B0B0B0"/>
<g clip-path="url(#clip3_923_57708)">
<rect width="28.2767" height="28.2767" transform="translate(221.618 45.252)" fill="white"/>
<path d="M236.372 60.676C234.452 60.676 232.543 59.6805 232.543 57.1806V53.8889C232.543 51.389 234.452 50.3936 236.372 50.3936C237.382 50.3936 238.237 50.5745 238.836 50.9139L238.614 52.7577C238.048 52.4862 237.404 52.3505 236.594 52.3505C235.573 52.3505 234.718 52.9274 234.718 53.9907V57.0788C234.718 58.1421 235.573 58.719 236.594 58.719C237.327 58.719 237.948 58.572 238.748 58.1874L238.969 60.0425C238.437 60.4497 237.338 60.676 236.372 60.676Z" fill="#9048EB"/>
<path d="M235.723 67.5916V68.08H230.569V67.5916H232.831V66.4348H231.16V63.5429H231.751V64.5068H234.515V63.5429H235.106V66.4348H233.422V67.5916H235.723ZM231.751 65.9592H234.515V64.9953H231.751V65.9592ZM240.493 63.1573V66.5633H239.902V65.3423H239.015V64.841H239.902V63.1573H240.493ZM235.814 64.1984V63.7099H237.164V63.1059H237.755V63.7099H239.105V64.1984H235.814ZM236.136 65.458C236.136 64.8667 236.688 64.449 237.46 64.4554C238.231 64.449 238.777 64.8667 238.783 65.458C238.777 66.0621 238.231 66.4605 237.46 66.4605C236.688 66.4605 236.136 66.0621 236.136 65.458ZM236.714 65.458C236.708 65.7986 237.01 66.0106 237.46 66.0106C237.903 66.0106 238.205 65.7986 238.205 65.458C238.205 65.1238 237.903 64.9053 237.46 64.9053C237.01 64.9053 236.708 65.1238 236.714 65.458ZM236.778 68.7098V66.8461H240.493V68.7098H236.778ZM237.37 68.2214H239.902V67.3088H237.37V68.2214Z" fill="#9048EB"/>
</g>
<rect x="221.939" y="45.5733" width="27.634" height="27.634" rx="13.817" stroke="black" stroke-opacity="0.08" stroke-width="0.642652"/>
<path d="M212.498 87.824V86.498L216.476 80.336H218.53V86.472H219.726V87.824H218.53V89.54H216.944V87.824H212.498ZM214.188 86.472H216.97V82.234H216.892L214.188 86.394V86.472ZM224.013 89.67C222.05 89.67 220.646 88.604 220.607 87.044H222.271C222.31 87.785 223.051 88.279 224.013 88.266C225.014 88.279 225.742 87.72 225.755 86.914C225.742 86.069 225.04 85.484 223.831 85.484H223.025V84.21H223.831C224.819 84.21 225.495 83.664 225.495 82.858C225.495 82.091 224.91 81.571 224.013 81.558C223.155 81.571 222.414 82.052 222.375 82.832H220.789C220.828 81.285 222.232 80.219 224.039 80.232C225.898 80.219 227.107 81.363 227.081 82.78C227.107 83.807 226.418 84.548 225.417 84.756V84.834C226.717 85.003 227.445 85.835 227.445 86.992C227.445 88.539 225.989 89.67 224.013 89.67ZM230.065 88.63L229.025 92.192H227.803L228.453 88.63H230.065ZM234.026 80.336V89.54H232.362V81.948H232.31L230.152 83.326V81.818L232.44 80.336H234.026ZM239.242 89.67C237.019 89.67 235.706 87.954 235.706 84.938C235.706 81.948 237.032 80.219 239.242 80.232C241.439 80.219 242.765 81.948 242.778 84.938C242.765 87.954 241.439 89.67 239.242 89.67ZM237.37 84.938C237.37 87.148 238.085 88.279 239.242 88.266C240.386 88.279 241.101 87.148 241.088 84.938C241.101 82.754 240.386 81.597 239.242 81.584C238.085 81.597 237.37 82.754 237.37 84.938ZM247.132 89.67C244.909 89.67 243.596 87.954 243.596 84.938C243.596 81.948 244.922 80.219 247.132 80.232C249.329 80.219 250.655 81.948 250.668 84.938C250.655 87.954 249.329 89.67 247.132 89.67ZM245.26 84.938C245.26 87.148 245.975 88.279 247.132 88.266C248.276 88.279 248.991 87.148 248.978 84.938C248.991 82.754 248.276 81.597 247.132 81.584C245.975 81.597 245.26 82.754 245.26 84.938Z" fill="#B0B0B0"/>
<path d="M259.557 87.3975H258.432V86.7646H256.902V86H258.432V81.3594H259.557V87.3975ZM259.732 89.208H253.773V86.8174H254.89V85.7539C254.345 85.7773 253.677 85.7891 252.886 85.7891L252.754 84.9014C253.785 84.8955 254.712 84.8779 255.536 84.8486C256.359 84.8193 257.143 84.7578 257.887 84.6641L257.948 85.4639C257.339 85.5664 256.694 85.6426 256.015 85.6924V87.2129H254.89V88.3115H259.732V89.208ZM255.355 81.6318C255.739 81.6289 256.082 81.6875 256.384 81.8076C256.686 81.9277 256.921 82.0977 257.091 82.3174C257.264 82.5342 257.351 82.7832 257.351 83.0645C257.351 83.3428 257.266 83.5889 257.096 83.8027C256.926 84.0166 256.688 84.1821 256.384 84.2993C256.082 84.4136 255.739 84.4707 255.355 84.4707C254.963 84.4707 254.614 84.4136 254.31 84.2993C254.005 84.1821 253.768 84.0181 253.598 83.8071C253.428 83.5933 253.343 83.3457 253.343 83.0645C253.343 82.7832 253.426 82.5342 253.593 82.3174C253.763 82.0977 254 81.9277 254.305 81.8076C254.613 81.6875 254.963 81.6289 255.355 81.6318ZM255.355 82.4492C255.065 82.4492 254.834 82.5034 254.661 82.6118C254.488 82.7202 254.403 82.8711 254.406 83.0645C254.403 83.2549 254.487 83.4028 254.657 83.5083C254.83 83.6108 255.062 83.6621 255.355 83.6621C255.631 83.6621 255.854 83.6094 256.023 83.5039C256.196 83.3984 256.284 83.252 256.287 83.0645C256.284 82.8711 256.196 82.7202 256.023 82.6118C255.854 82.5034 255.631 82.4492 255.355 82.4492Z" fill="#B0B0B0"/>
<g clip-path="url(#clip4_923_57708)">
<mask id="path-25-inside-4_923_57708" fill="white">
<path d="M13 100.222H280.307V159.888H13V100.222Z"/>
</mask>
<path d="M13 100.222H280.307V159.888H13V100.222Z" fill="white"/>
<path d="M280.307 159.245H13V160.53H280.307V159.245Z" fill="#E1E1E1" mask="url(#path-25-inside-4_923_57708)"/>
<path d="M27.5269 117.679H26.2082L29.1464 109.489H30.5808L33.5422 117.679H32.2003L31.46 115.527H28.2673L27.5269 117.679ZM28.6374 114.486H31.1014L29.9099 110.993H29.8405L28.6374 114.486ZM42.1489 117.563V118.419H35.1389V115.504H36.2031V117.563H42.1489ZM33.959 114.764V113.884H38.0308V112.265H39.0951V113.884H43.2132V114.764H33.959ZM34.5374 112.057C36.4576 111.768 38.0193 110.541 38.0308 109.188V108.795H39.1182V109.188C39.1066 110.576 40.6683 111.779 42.6116 112.057L42.1952 112.913C40.5873 112.624 39.1992 111.802 38.5629 110.634C37.9267 111.802 36.5386 112.635 34.9538 112.913L34.5374 112.057ZM48.7931 110.183V111.062H43.7727V110.183H45.7623V108.818H46.8266V110.183H48.7931ZM44.0966 114C44.0966 112.635 45.022 111.663 46.2945 111.663C47.5785 111.663 48.4923 112.635 48.4923 114C48.4923 115.377 47.5785 116.348 46.2945 116.36C45.022 116.348 44.0966 115.377 44.0966 114ZM45.0451 114C45.0451 114.856 45.5657 115.435 46.2945 115.435C47.0232 115.435 47.5438 114.856 47.5438 114C47.5438 113.156 47.0232 112.566 46.2945 112.566C45.5657 112.566 45.0451 113.156 45.0451 114ZM49.2789 118.165V108.748H50.2738V112.728H51.4537V108.517H52.4716V118.627H51.4537V113.607H50.2738V118.165H49.2789ZM62.91 116.499V117.378H53.6327V116.499H57.7045V114.417H54.6969V109.211H55.7611V110.946H60.7353V109.211H61.7995V114.417H58.7687V116.499H62.91ZM55.7611 113.561H60.7353V111.825H55.7611V113.561ZM71.914 108.517V114.648H70.8497V112.45H69.2534V111.548H70.8497V108.517H71.914ZM63.4926 110.391V109.512H65.9219V108.425H66.9861V109.512H69.4153V110.391H63.4926ZM64.071 112.658C64.071 111.594 65.0659 110.842 66.454 110.854C67.8421 110.842 68.8254 111.594 68.8369 112.658C68.8254 113.746 67.8421 114.463 66.454 114.463C65.0659 114.463 64.071 113.746 64.071 112.658ZM65.1121 112.658C65.1006 113.271 65.6442 113.653 66.454 113.653C67.2522 113.653 67.7958 113.271 67.7958 112.658C67.7958 112.057 67.2522 111.663 66.454 111.663C65.6442 111.663 65.1006 112.057 65.1121 112.658ZM65.2278 118.512V115.157H71.914V118.512H65.2278ZM66.292 117.632H70.8497V115.99H66.292V117.632Z" fill="#999999"/>
<path d="M34.3982 125.224V127.584H35.8326V128.602H34.3982V131.054H33.1257V125.224H34.3982ZM26.4627 128.254C26.4396 126.809 27.6311 125.802 29.2158 125.802C30.7775 125.802 31.9574 126.809 31.969 128.254C31.9574 129.689 30.7775 130.695 29.2158 130.707C27.6311 130.695 26.4396 129.689 26.4627 128.254ZM27.6889 128.254C27.6773 129.099 28.3251 129.631 29.2158 129.643C30.0718 129.631 30.7312 129.099 30.7428 128.254C30.7312 127.41 30.0834 126.855 29.2158 126.866C28.3251 126.855 27.6773 127.41 27.6889 128.254ZM27.8046 135.311V131.517H34.3982V135.311H27.8046ZM29.0307 134.293H33.1489V132.511H29.0307V134.293ZM45.5075 133.182V134.2H36.1839V133.182H40.2094V131.193H37.2018V125.895H38.4512V127.584H43.1939V125.895H44.4432V131.193H41.4356V133.182H45.5075ZM38.4512 130.175H43.1939V128.578H38.4512V130.175ZM54.5577 125.224V131.401H53.3084V129.296H51.8509V128.254H53.3084V125.224H54.5577ZM46.0207 127.19V126.172H48.4037V125.131H49.653V126.172H52.0359V127.19H46.0207ZM46.5991 129.411C46.6107 128.347 47.6171 127.584 49.0283 127.584C50.4512 127.584 51.446 128.347 51.4576 129.411C51.446 130.522 50.4512 131.251 49.0283 131.239C47.6171 131.251 46.6107 130.522 46.5991 129.411ZM47.779 135.311V131.864H54.5577V135.311H47.779ZM47.8253 129.411C47.8021 129.978 48.2996 130.314 49.0283 130.314C49.7571 130.314 50.2429 129.978 50.2545 129.411C50.2429 128.868 49.7571 128.532 49.0283 128.532C48.2996 128.532 47.8021 128.868 47.8253 129.411ZM49.0283 134.293H53.3315V132.858H49.0283V134.293ZM66.8977 125.524V126.473H65.4865V128.023H66.8283V128.972H59.3324V128.023H60.6974V126.473H59.2861V125.524H66.8977ZM58.4533 130.614V129.619H67.7537V130.614H58.4533ZM59.5406 135.357V132.858H65.3476V132.211H59.5406V131.285H66.597V133.714H60.79V134.409H66.8746V135.357H59.5406ZM61.9467 128.023H64.2371V126.473H61.9467V128.023ZM76.8271 125.224V135.45H75.5778V130.013H73.8195V128.995H75.5778V125.224H76.8271ZM68.614 127.144V126.126H73.2411V129.851H69.9096V132.002C71.425 131.991 72.6396 131.945 74.0046 131.702L74.1203 132.72C72.5933 132.997 71.2283 133.055 69.47 133.044H68.6603V128.833H72.0149V127.144H68.614ZM83.4018 126.635C83.3903 128.208 84.9404 129.793 87.0804 130.152L86.502 131.216C84.79 130.857 83.4018 129.816 82.7425 128.451C82.06 129.805 80.6603 130.846 78.9598 131.216L78.4046 130.152C80.5099 129.781 82.0484 128.197 82.06 126.635V125.872H83.4018V126.635ZM78.127 134.131V133.09H87.4505V134.131H78.127ZM95.5336 126.843V127.861H90.5364V126.843H92.4335V125.524H93.6597V126.843H95.5336ZM90.814 130.776C90.814 129.377 91.751 128.393 93.0581 128.393C94.3422 128.393 95.2676 129.377 95.2791 130.776C95.2676 132.188 94.3422 133.182 93.0581 133.182C91.751 133.182 90.814 132.188 90.814 130.776ZM91.9245 130.776C91.9245 131.598 92.3872 132.107 93.0581 132.095C93.7059 132.107 94.1686 131.598 94.1686 130.776C94.1686 129.966 93.7059 129.446 93.0581 129.434C92.3872 129.446 91.9245 129.966 91.9245 130.776ZM95.9501 134.964V125.432H97.13V129.434H98.1248V125.224H99.3279V135.426H98.1248V130.452H97.13V134.964H95.9501ZM109.836 126.658V127.676H108.447V128.833H109.836V129.897H108.447V131.262H107.175V125.224H108.447V126.658H109.836ZM100.512 128.254C100.489 126.832 101.68 125.802 103.265 125.802C104.827 125.802 106.007 126.832 106.018 128.254C106.007 129.724 104.827 130.73 103.265 130.73C101.68 130.73 100.489 129.724 100.512 128.254ZM101.646 132.72V131.702H108.447V135.426H107.175V132.72H101.646ZM101.738 128.254C101.727 129.134 102.374 129.666 103.265 129.666C104.121 129.666 104.781 129.134 104.792 128.254C104.781 127.41 104.133 126.878 103.265 126.889C102.374 126.878 101.727 127.41 101.738 128.254ZM118.307 125.224V128.648H119.696V129.689H118.307V133.205H117.058V125.224H118.307ZM110.141 131.17C110.904 131.17 111.783 131.158 112.709 131.123V130.475C111.575 130.325 110.858 129.77 110.858 128.949C110.858 127.954 111.841 127.364 113.333 127.375C114.802 127.364 115.786 127.954 115.786 128.949C115.786 129.77 115.08 130.325 113.958 130.475V131.065C114.837 131.008 115.705 130.927 116.526 130.799L116.619 131.679C114.467 132.095 112.038 132.118 110.279 132.141L110.141 131.17ZM110.395 127.028V126.126H112.709V125.201H113.958V126.126H116.248V127.028H110.395ZM111.598 135.241V132.673H112.871V134.223H118.678V135.241H111.598ZM112.061 128.949C112.061 129.388 112.524 129.654 113.333 129.666C114.108 129.654 114.583 129.388 114.583 128.949C114.583 128.474 114.108 128.22 113.333 128.208C112.524 128.22 112.061 128.474 112.061 128.949ZM122.453 131.054V132.211H126.988V131.054H128.214V135.311H121.204V131.054H122.453ZM120.07 130.29V129.272H126.756C126.976 128.208 126.999 127.398 127.011 126.681H121.227V125.663H128.26V126.45C128.26 127.225 128.26 128.081 127.994 129.272H129.394V130.29H120.07ZM122.453 134.293H126.988V133.182H122.453V134.293ZM138.097 125.71V126.519C138.097 127.306 138.097 128.208 137.842 129.411H139.23V130.429H129.907V129.411H136.558C136.813 128.301 136.836 127.479 136.848 126.728H131.064V125.71H138.097ZM131.017 135.311V131.609H138.074V135.311H131.017ZM132.244 134.293H136.824V132.604H132.244V134.293ZM145.134 126.172V132.951H140.276V126.172H145.134ZM141.525 131.956H143.908V127.167H141.525V131.956ZM146.962 135.45V125.224H148.234V135.45H146.962ZM153.421 128.116C153.421 129.805 154.404 131.563 156.058 132.257L155.364 133.252C154.161 132.72 153.271 131.644 152.808 130.348C152.345 131.748 151.443 132.939 150.251 133.506L149.534 132.511C151.142 131.771 152.149 129.862 152.149 128.116V127.26H149.904V126.242H155.665V127.26H153.421V128.116ZM156.799 135.426V125.224H158.071V135.426H156.799ZM161.8 131.054V132.211H166.335V131.054H167.561V135.311H160.551V131.054H161.8ZM159.417 130.29V129.272H166.104C166.323 128.208 166.346 127.398 166.358 126.681H160.574V125.663H167.607V126.45C167.607 127.225 167.607 128.081 167.341 129.272H168.741V130.29H159.417ZM161.8 134.293H166.335V133.182H161.8V134.293ZM174.969 126.242V127.237H169.254V126.242H171.545V125.131H172.794V126.242H174.969ZM169.809 129.55C169.798 128.405 170.77 127.641 172.169 127.63C173.557 127.641 174.552 128.405 174.552 129.55C174.552 130.684 173.557 131.436 172.169 131.447C170.77 131.436 169.798 130.684 169.809 129.55ZM170.874 133.645C170.874 132.535 172.204 131.875 174.367 131.864C176.519 131.875 177.849 132.535 177.861 133.645C177.849 134.767 176.519 135.426 174.367 135.426C172.204 135.426 170.874 134.767 170.874 133.645ZM170.966 129.55C170.966 130.152 171.441 130.499 172.169 130.499C172.887 130.499 173.384 130.152 173.395 129.55C173.384 128.937 172.887 128.578 172.169 128.578C171.441 128.578 170.966 128.937 170.966 129.55ZM172.192 133.645C172.192 134.177 172.979 134.466 174.367 134.455C175.732 134.466 176.507 134.177 176.519 133.645C176.507 133.113 175.732 132.835 174.367 132.835C172.979 132.835 172.192 133.113 172.192 133.645ZM175.015 130.568V129.55H176.542V128.555H175.038V127.537H176.542V125.224H177.791V131.771H176.542V130.568H175.015Z" fill="#222222"/>
<path d="M28.9691 144.061V150.431H27.9974V145.032H27.9614L26.4499 146.022V145.104L28.0334 144.061H28.9691ZM32.6241 150.521C31.1575 150.521 30.2938 149.333 30.2848 147.246C30.2938 145.185 31.1665 143.98 32.6241 143.989C34.0906 143.98 34.9633 145.185 34.9633 147.246C34.9633 149.333 34.0996 150.521 32.6241 150.521ZM31.2565 147.246C31.2565 148.838 31.7693 149.684 32.6241 149.693C33.4878 149.684 34.0006 148.838 33.9916 147.246C34.0006 145.671 33.4788 144.798 32.6241 144.798C31.7783 144.798 31.2565 145.671 31.2565 147.246ZM37.9882 150.521C36.5217 150.521 35.658 149.333 35.649 147.246C35.658 145.185 36.5307 143.98 37.9882 143.989C39.4548 143.98 40.3275 145.185 40.3275 147.246C40.3275 149.333 39.4638 150.521 37.9882 150.521ZM36.6207 147.246C36.6207 148.838 37.1335 149.684 37.9882 149.693C38.852 149.684 39.3648 148.838 39.3558 147.246C39.3648 145.671 38.843 144.798 37.9882 144.798C37.1425 144.798 36.6207 145.671 36.6207 147.246ZM43.2625 145.446C43.2715 146.715 43.7933 148.055 44.846 148.703L44.3781 149.351C43.6493 148.901 43.1455 148.118 42.8756 147.201C42.5877 148.199 42.0479 149.045 41.2831 149.513L40.7613 148.901C41.8769 148.226 42.4617 146.832 42.4707 145.5V144.025H43.2625V145.446ZM44.0002 146.76V146.076H45.2238V143.449H46.0156V150.791H45.2238V146.76H44.0002ZM46.8433 151.168V143.305H47.6351V151.168H46.8433ZM54.4765 143.989V147.678H50.7876V143.989H54.4765ZM51.5974 147.012H53.6487V144.673H51.5974V147.012ZM51.6874 151.006V148.505H52.5151V150.341H57.0137V151.006H51.6874ZM55.844 149.063V143.305H56.6718V145.662H57.8054V146.346H56.6718V149.063H55.844ZM64.6275 143.305V151.168H63.7818V143.305H64.6275ZM58.1496 149.063C60.2549 148.073 61.2716 146.652 61.4336 144.816H58.5455V144.151H62.2883C62.2793 146.454 61.2986 148.451 58.5995 149.747L58.1496 149.063Z" fill="#999999"/>
<line x1="72.7481" y1="144.075" x2="72.7481" y2="151.787" stroke="#DDDDDD" stroke-width="0.642652"/>
<path d="M79.4113 150.431V149.729L81.6246 147.498C82.3174 146.778 82.6683 146.373 82.6683 145.824C82.6683 145.194 82.1555 144.789 81.4807 144.798C80.7789 144.789 80.329 145.239 80.329 145.914H79.4113C79.4113 144.753 80.2931 143.98 81.5167 143.989C82.7313 143.98 83.586 144.753 83.586 145.788C83.586 146.499 83.2441 147.066 82.0565 148.235L80.7609 149.549V149.603H83.694V150.431H79.4113ZM86.7867 150.521C85.3202 150.521 84.4565 149.333 84.4475 147.246C84.4565 145.185 85.3292 143.98 86.7867 143.989C88.2533 143.98 89.126 145.185 89.126 147.246C89.126 149.333 88.2623 150.521 86.7867 150.521ZM85.4192 147.246C85.4192 148.838 85.932 149.684 86.7867 149.693C87.6505 149.684 88.1633 148.838 88.1543 147.246C88.1633 145.671 87.6415 144.798 86.7867 144.798C85.941 144.798 85.4192 145.671 85.4192 147.246ZM96.2356 143.305V149.135H95.4079V146.454H93.2306V145.788H95.4079V144.96H93.2306V144.295H95.4079V143.305H96.2356ZM90.1356 148.001V143.863H90.9633V147.3C92.007 147.3 93.0056 147.237 94.1303 147.03L94.2203 147.714C92.9697 147.947 91.899 148.001 90.7294 148.001H90.1356ZM91.1073 151.006V148.613H91.953V150.341H96.4336V151.006H91.1073ZM103.454 143.305V145.014H104.605V145.716H103.454V147.426H102.626V143.305H103.454ZM97.6235 147.084V143.665H98.4692V146.382C99.5309 146.382 100.638 146.301 101.852 146.058L101.96 146.742C100.629 147.003 99.4319 147.084 98.2713 147.084H97.6235ZM98.3972 151.078V147.804H99.225V148.775H102.626V147.804H103.454V151.078H98.3972ZM99.225 150.395H102.626V149.459H99.225V150.395ZM113.426 143.305V151.168H112.58V143.305H113.426ZM106.948 149.063C109.053 148.073 110.07 146.652 110.232 144.816H107.344V144.151H111.087C111.078 146.454 110.097 148.451 107.398 149.747L106.948 149.063ZM121.004 143.683V144.349H118.611C118.656 145.212 119.789 145.959 121.256 146.148L120.95 146.796C119.6 146.625 118.485 146.004 118.062 145.113C117.63 145.995 116.532 146.625 115.192 146.796L114.868 146.148C116.343 145.959 117.459 145.212 117.513 144.349H115.138V143.683H121.004ZM114.472 147.983V147.318H121.67V147.983H118.539V149.513H117.729V147.983H114.472ZM115.354 151.006V148.757H116.199V150.341H120.878V151.006H115.354Z" fill="#999999"/>
</g>
</g>
<path d="M13 36H280.307H13ZM280.307 160H13V158H280.307V160ZM13 159V36V159ZM280.307 36V159V36Z" fill="black" fill-opacity="0.04" mask="url(#path-1-inside-1_923_57708)"/>
</g>
<rect y="158" width="300" height="12" fill="white"/>
<defs>
<filter id="filter0_d_923_57708" x="7" y="33" width="279.307" height="135" filterUnits="userSpaceOnUse" color-interpolation-filters="sRGB">
<feFlood flood-opacity="0" result="BackgroundImageFix"/>
<feColorMatrix in="SourceAlpha" type="matrix" values="0 0 0 0 0 0 0 0 0 0 0 0 0 0 0 0 0 0 127 0" result="hardAlpha"/>
<feOffset dy="3"/>
<feGaussianBlur stdDeviation="3"/>
<feComposite in2="hardAlpha" operator="out"/>
<feColorMatrix type="matrix" values="0 0 0 0 0 0 0 0 0 0 0 0 0 0 0 0 0 0 0.16 0"/>
<feBlend mode="normal" in2="BackgroundImageFix" result="effect1_dropShadow_923_57708"/>
<feBlend mode="normal" in="SourceGraphic" in2="effect1_dropShadow_923_57708" result="shape"/>
</filter>
<clipPath id="clip0_923_57708">
<path d="M13 43.7118C13 39.4527 16.4527 36 20.7118 36H272.595C276.854 36 280.307 39.4527 280.307 43.7118V159H13V43.7118Z" fill="white"/>
</clipPath>
<clipPath id="clip1_923_57708">
<rect x="43.4131" y="45.252" width="28.2767" height="28.2767" rx="14.1383" fill="white"/>
</clipPath>
<clipPath id="clip2_923_57708">
<rect x="132.516" y="45.252" width="28.2767" height="28.2767" rx="14.1383" fill="white"/>
</clipPath>
<clipPath id="clip3_923_57708">
<rect x="221.618" y="45.252" width="28.2767" height="28.2767" rx="14.1383" fill="white"/>
</clipPath>
<clipPath id="clip4_923_57708">
<rect width="267.307" height="203.386" fill="white" transform="translate(13 100.222)"/>
</clipPath>
</defs>
</svg>
