<svg width="300" height="170" viewBox="0 0 300 170" fill="none" xmlns="http://www.w3.org/2000/svg">
<g filter="url(#filter0_d_923_57934)">
<rect x="130.154" y="9" width="149.602" height="42.5487" rx="9.9721" fill="url(#paint0_linear_923_57934)" fill-opacity="0.6" shape-rendering="crispEdges"/>
<rect x="130.404" y="9.25" width="149.102" height="42.0487" rx="9.7221" stroke="black" stroke-opacity="0.05" stroke-width="0.5" shape-rendering="crispEdges"/>
<g opacity="0.4">
<path d="M146.028 19.0597V20.6362H146.986V21.3162H146.028V22.9545H145.178V19.0597H146.028ZM140.727 21.0844C140.712 20.1184 141.508 19.4461 142.566 19.4461C143.609 19.4461 144.398 20.1184 144.405 21.0844C144.398 22.0426 143.609 22.7149 142.566 22.7226C141.508 22.7149 140.712 22.0426 140.727 21.0844ZM141.546 21.0844C141.538 21.6485 141.971 22.004 142.566 22.0117C143.138 22.004 143.579 21.6485 143.586 21.0844C143.579 20.5203 143.146 20.1493 142.566 20.1571C141.971 20.1493 141.538 20.5203 141.546 21.0844ZM141.623 25.7982V23.2636H146.028V25.7982H141.623ZM142.443 25.1182H145.194V23.9281H142.443V25.1182ZM149.755 20.4507C149.755 21.3007 150.335 22.1276 151.424 22.4599L150.991 23.1245C150.219 22.8695 149.655 22.3594 149.345 21.7103C149.044 22.4135 148.464 22.9776 147.653 23.2481L147.22 22.5835C148.318 22.2281 148.905 21.3471 148.905 20.4507V20.2498H147.437V19.5852H151.192V20.2498H149.755V20.4507ZM148.333 25.7519V23.5572H149.183V25.0718H153.031V25.7519H148.333ZM152.011 24.0209V19.0752H152.846V24.0209H152.011ZM159.077 19.0597V20.9762H160.035V21.6717H159.077V23.99H158.226V19.0597H159.077ZM153.976 22.8463V19.6316H157.036V20.2961H154.811V22.1508C156.094 22.1508 156.805 22.1121 157.608 21.9499L157.701 22.6144C156.812 22.7999 156.016 22.8385 154.533 22.8463H153.976ZM154.703 25.7519V23.4799H155.537V25.0718H159.339V25.7519H154.703ZM165.894 19.0597V25.891H165.044V19.0597H165.894ZM160.578 24.2836V19.6161H161.412V21.3162H163.066V19.6161H163.901V24.2836H160.578ZM161.412 23.5881H163.066V21.9808H161.412V23.5881Z" fill="#222222"/>
<path d="M144.353 38.5088H142.743V32.3125H142.7L140.93 33.4217V32.0033L142.839 30.7875H144.353V38.5088ZM148.937 38.6154C148.294 38.6154 147.739 38.4608 147.273 38.1515C146.811 37.8387 146.456 37.3854 146.207 36.7918C145.958 36.1981 145.834 35.4835 145.834 34.6481C145.834 33.8127 145.958 33.0982 146.207 32.5045C146.456 31.9108 146.811 31.4594 147.273 31.1501C147.739 30.8373 148.294 30.6808 148.937 30.6808C149.577 30.6808 150.13 30.8373 150.595 31.1501C151.061 31.4594 151.418 31.9126 151.667 32.5098C151.916 33.1035 152.04 33.8163 152.04 34.6481C152.04 35.4871 151.916 36.2034 151.667 36.7971C151.418 37.3908 151.061 37.8422 150.595 38.1515C150.133 38.4608 149.58 38.6154 148.937 38.6154ZM148.937 37.293C149.236 37.293 149.493 37.197 149.71 37.0051C149.931 36.8131 150.099 36.5234 150.217 36.1359C150.338 35.7484 150.398 35.2702 150.398 34.7015C150.398 33.8163 150.27 33.1444 150.014 32.6858C149.758 32.2237 149.399 31.9926 148.937 31.9926C148.475 31.9926 148.116 32.2237 147.86 32.6858C147.604 33.1444 147.476 33.8163 147.476 34.7015C147.476 35.2702 147.535 35.7484 147.652 36.1359C147.773 36.5234 147.942 36.8131 148.158 37.0051C148.379 37.197 148.638 37.293 148.937 37.293ZM153.435 40.7591H152.305L152.838 37.7196H154.353L153.435 40.7591ZM158.232 38.6154C157.589 38.6154 157.034 38.4608 156.569 38.1515C156.107 37.8387 155.751 37.3854 155.502 36.7918C155.253 36.1981 155.129 35.4835 155.129 34.6481C155.129 33.8127 155.253 33.0982 155.502 32.5045C155.751 31.9108 156.107 31.4594 156.569 31.1501C157.034 30.8373 157.589 30.6808 158.232 30.6808C158.872 30.6808 159.425 30.8373 159.891 31.1501C160.356 31.4594 160.714 31.9126 160.963 32.5098C161.211 33.1035 161.336 33.8163 161.336 34.6481C161.336 35.4871 161.211 36.2034 160.963 36.7971C160.714 37.3908 160.356 37.8422 159.891 38.1515C159.429 38.4608 158.876 38.6154 158.232 38.6154ZM158.232 37.293C158.531 37.293 158.789 37.197 159.006 37.0051C159.226 36.8131 159.395 36.5234 159.512 36.1359C159.633 35.7484 159.694 35.2702 159.694 34.7015C159.694 33.8163 159.566 33.1444 159.31 32.6858C159.054 32.2237 158.695 31.9926 158.232 31.9926C157.77 31.9926 157.411 32.2237 157.155 32.6858C156.899 33.1444 156.771 33.8163 156.771 34.7015C156.771 35.2702 156.83 35.7484 156.947 36.1359C157.068 36.5234 157.237 36.8131 157.454 37.0051C157.674 37.197 157.934 37.293 158.232 37.293ZM165.237 38.6154C164.594 38.6154 164.039 38.4608 163.573 38.1515C163.111 37.8387 162.756 37.3854 162.507 36.7918C162.258 36.1981 162.134 35.4835 162.134 34.6481C162.134 33.8127 162.258 33.0982 162.507 32.5045C162.756 31.9108 163.111 31.4594 163.573 31.1501C164.039 30.8373 164.594 30.6808 165.237 30.6808C165.877 30.6808 166.43 30.8373 166.895 31.1501C167.361 31.4594 167.718 31.9126 167.967 32.5098C168.216 33.1035 168.341 33.8163 168.341 34.6481C168.341 35.4871 168.216 36.2034 167.967 36.7971C167.718 37.3908 167.361 37.8422 166.895 38.1515C166.433 38.4608 165.881 38.6154 165.237 38.6154ZM165.237 37.293C165.536 37.293 165.793 37.197 166.01 37.0051C166.231 36.8131 166.4 36.5234 166.517 36.1359C166.638 35.7484 166.698 35.2702 166.698 34.7015C166.698 33.8163 166.57 33.1444 166.314 32.6858C166.058 32.2237 165.699 31.9926 165.237 31.9926C164.775 31.9926 164.416 32.2237 164.16 32.6858C163.904 33.1444 163.776 33.8163 163.776 34.7015C163.776 35.2702 163.835 35.7484 163.952 36.1359C164.073 36.5234 164.242 36.8131 164.459 37.0051C164.679 37.197 164.938 37.293 165.237 37.293ZM172.242 38.6154C171.598 38.6154 171.044 38.4608 170.578 38.1515C170.116 37.8387 169.76 37.3854 169.512 36.7918C169.263 36.1981 169.138 35.4835 169.138 34.6481C169.138 33.8127 169.263 33.0982 169.512 32.5045C169.76 31.9108 170.116 31.4594 170.578 31.1501C171.044 30.8373 171.598 30.6808 172.242 30.6808C172.882 30.6808 173.434 30.8373 173.9 31.1501C174.366 31.4594 174.723 31.9126 174.972 32.5098C175.221 33.1035 175.345 33.8163 175.345 34.6481C175.345 35.4871 175.221 36.2034 174.972 36.7971C174.723 37.3908 174.366 37.8422 173.9 38.1515C173.438 38.4608 172.885 38.6154 172.242 38.6154ZM172.242 37.293C172.54 37.293 172.798 37.197 173.015 37.0051C173.235 36.8131 173.404 36.5234 173.521 36.1359C173.642 35.7484 173.703 35.2702 173.703 34.7015C173.703 33.8163 173.575 33.1444 173.319 32.6858C173.063 32.2237 172.704 31.9926 172.242 31.9926C171.78 31.9926 171.421 32.2237 171.165 32.6858C170.909 33.1444 170.781 33.8163 170.781 34.7015C170.781 35.2702 170.839 35.7484 170.957 36.1359C171.077 36.5234 171.246 36.8131 171.463 37.0051C171.684 37.197 171.943 37.293 172.242 37.293Z" fill="#FF9B00"/>
<mask id="mask0_923_57934" style="mask-type:alpha" maskUnits="userSpaceOnUse" x="177" y="27" width="12" height="16">
<rect x="177.783" y="27.5088" width="10.2382" height="15" fill="white"/>
</mask>
<g mask="url(#mask0_923_57934)">
<path d="M185.164 33.4864L182.557 35.8968L179.95 33.4864C179.688 33.2441 179.265 33.2441 179.003 33.4864C178.741 33.7287 178.741 34.1201 179.003 34.3624L182.087 37.2139C182.349 37.4562 182.772 37.4562 183.034 37.2139L186.118 34.3624C186.38 34.1201 186.38 33.7287 186.118 33.4864C185.856 33.2503 185.426 33.2441 185.164 33.4864Z" fill="#FF9B00"/>
</g>
<path d="M193.734 32.9698V36.7142H189.989V32.9698H193.734ZM190.811 36.0384H192.894V33.6639H190.811V36.0384ZM190.903 40.0933V37.5544H191.743V39.4175H196.309V40.0933H190.903ZM195.122 38.1206V32.2757H195.962V34.6685H197.113V35.3626H195.962V38.1206H195.122ZM204.221 32.2757V38.3398H203.362V37.5727H201.773V36.9699H203.362V32.2757H204.221ZM197.535 35.9288C199.015 35.9196 201.006 35.9014 202.705 35.6913L202.759 36.2941C202.074 36.4128 201.362 36.4859 200.659 36.5315V38.0841H199.819V36.5772C199.042 36.6046 198.293 36.6046 197.645 36.6046L197.535 35.9288ZM198.156 33.9926C198.156 33.1524 198.969 32.5862 200.147 32.5862C201.316 32.5862 202.129 33.1524 202.138 33.9926C202.129 34.8511 201.316 35.3899 200.147 35.3808C198.969 35.3899 198.156 34.8511 198.156 33.9926ZM198.65 40.0933V37.7553H199.49V39.4175H204.421V40.0933H198.65ZM198.96 33.9926C198.96 34.4675 199.444 34.7689 200.147 34.7598C200.832 34.7689 201.325 34.4675 201.335 33.9926C201.325 33.5177 200.832 33.2164 200.147 33.2255C199.444 33.2164 198.96 33.5177 198.96 33.9926Z" fill="#222222"/>
<path d="M226.51 37.3871L229.185 34.9276C229.45 34.6738 229.654 34.4628 229.798 34.2947C229.945 34.1267 230.058 33.9603 230.137 33.7956C230.216 33.6276 230.256 33.4492 230.256 33.2605C230.256 33.0444 230.204 32.8557 230.101 32.6945C230.002 32.5333 229.861 32.4098 229.679 32.3241C229.501 32.2349 229.299 32.1903 229.072 32.1903C228.722 32.1903 228.443 32.2949 228.234 32.5041C228.024 32.71 227.92 32.9895 227.92 33.3428H226.448C226.445 32.8626 226.553 32.4424 226.772 32.0822C226.995 31.722 227.307 31.4442 227.709 31.2487C228.11 31.0532 228.571 30.9554 229.093 30.9554C229.618 30.9554 230.081 31.0497 230.482 31.2384C230.883 31.4236 231.194 31.6826 231.413 32.0153C231.636 32.3481 231.748 32.7288 231.748 33.1576C231.748 33.4492 231.691 33.7305 231.578 34.0014C231.465 34.269 231.268 34.5692 230.986 34.9019C230.709 35.2312 230.314 35.6274 229.803 36.0905L228.671 37.1916V37.2327H231.851V38.5088H226.52L226.51 37.3871ZM236.379 32.3755V32.3241H232.725V31.0583H237.984V32.3446L234.845 38.5088H233.24L236.379 32.3755ZM238.509 40.6801H237.418L237.933 37.7473H239.394L238.509 40.6801ZM243.346 38.6117C242.79 38.6117 242.286 38.4934 241.833 38.2567C241.38 38.0165 241.015 37.6255 240.737 37.0835C240.459 36.5381 240.32 35.8298 240.32 34.9585C240.32 34.1318 240.445 33.4183 240.696 32.818C240.946 32.2143 241.303 31.7529 241.766 31.4339C242.229 31.1149 242.769 30.9554 243.387 30.9554C243.874 30.9554 244.311 31.0497 244.699 31.2384C245.086 31.427 245.397 31.686 245.63 32.0153C245.867 32.3446 246.011 32.7151 246.062 33.1267H244.539C244.478 32.8626 244.344 32.6568 244.138 32.5093C243.936 32.3584 243.685 32.2829 243.387 32.2829C242.889 32.2829 242.507 32.4939 242.239 32.9158C241.975 33.3343 241.84 33.9157 241.833 34.6601H241.905C242.073 34.3342 242.328 34.0786 242.671 33.8934C243.015 33.7047 243.394 33.6104 243.809 33.6104C244.251 33.6104 244.649 33.715 245.002 33.9243C245.359 34.1301 245.639 34.4165 245.841 34.7835C246.043 35.1471 246.145 35.5588 246.145 36.0184C246.145 36.5158 246.026 36.9617 245.79 37.3562C245.556 37.7473 245.227 38.0543 244.802 38.2772C244.376 38.5002 243.891 38.6117 243.346 38.6117ZM243.315 37.3871C243.565 37.3871 243.791 37.3288 243.994 37.2122C244.196 37.0955 244.354 36.936 244.467 36.7336C244.584 36.5313 244.642 36.3066 244.642 36.0596C244.642 35.816 244.586 35.5931 244.472 35.3907C244.363 35.1883 244.208 35.0288 244.009 34.9122C243.81 34.7921 243.586 34.7321 243.335 34.7321C243.085 34.7321 242.857 34.7921 242.651 34.9122C242.449 35.0288 242.287 35.19 242.167 35.3958C242.051 35.5982 241.991 35.8195 241.987 36.0596C241.991 36.3031 242.049 36.5261 242.162 36.7285C242.279 36.9309 242.438 37.0921 242.641 37.2122C242.843 37.3288 243.068 37.3871 243.315 37.3871ZM250.107 38.6117C249.486 38.6117 248.951 38.4625 248.501 38.164C248.055 37.8622 247.712 37.4248 247.472 36.852C247.232 36.2791 247.112 35.5897 247.112 34.7835C247.112 33.9774 247.232 33.288 247.472 32.7151C247.712 32.1423 248.055 31.7066 248.501 31.4082C248.951 31.1063 249.486 30.9554 250.107 30.9554C250.724 30.9554 251.257 31.1063 251.707 31.4082C252.156 31.7066 252.501 32.144 252.741 32.7203C252.981 33.2931 253.101 33.9809 253.101 34.7835C253.101 35.5931 252.981 36.2843 252.741 36.8571C252.501 37.43 252.156 37.8656 251.707 38.164C251.261 38.4625 250.727 38.6117 250.107 38.6117ZM250.107 37.3356C250.395 37.3356 250.643 37.243 250.853 37.0578C251.065 36.8726 251.228 36.593 251.341 36.2191C251.458 35.8452 251.516 35.3838 251.516 34.835C251.516 33.9809 251.393 33.3325 251.146 32.89C250.899 32.4441 250.552 32.2212 250.107 32.2212C249.661 32.2212 249.314 32.4441 249.067 32.89C248.82 33.3325 248.697 33.9809 248.697 34.835C248.697 35.3838 248.753 35.8452 248.867 36.2191C248.983 36.593 249.146 36.8726 249.355 37.0578C249.568 37.243 249.818 37.3356 250.107 37.3356ZM257.063 38.6117C256.442 38.6117 255.907 38.4625 255.458 38.164C255.012 37.8622 254.669 37.4248 254.429 36.852C254.189 36.2791 254.068 35.5897 254.068 34.7835C254.068 33.9774 254.189 33.288 254.429 32.7151C254.669 32.1423 255.012 31.7066 255.458 31.4082C255.907 31.1063 256.442 30.9554 257.063 30.9554C257.681 30.9554 258.214 31.1063 258.663 31.4082C259.113 31.7066 259.457 32.144 259.698 32.7203C259.938 33.2931 260.058 33.9809 260.058 34.7835C260.058 35.5931 259.938 36.2843 259.698 36.8571C259.457 37.43 259.113 37.8656 258.663 38.164C258.217 38.4625 257.684 38.6117 257.063 38.6117ZM257.063 37.3356C257.351 37.3356 257.6 37.243 257.809 37.0578C258.022 36.8726 258.185 36.593 258.298 36.2191C258.415 35.8452 258.473 35.3838 258.473 34.835C258.473 33.9809 258.349 33.3325 258.102 32.89C257.855 32.4441 257.509 32.2212 257.063 32.2212C256.617 32.2212 256.271 32.4441 256.024 32.89C255.777 33.3325 255.653 33.9809 255.653 34.835C255.653 35.3838 255.71 35.8452 255.823 36.2191C255.94 36.593 256.103 36.8726 256.312 37.0578C256.525 37.243 256.775 37.3356 257.063 37.3356ZM268.753 37.171H267.436V36.4301H265.646V35.5348H267.436V30.1013H268.753V37.171ZM268.959 39.2909H261.982V36.4918H263.289V35.2466C262.651 35.2741 261.869 35.2878 260.943 35.2878L260.788 34.2484C261.996 34.2416 263.081 34.221 264.045 34.1867C265.009 34.1524 265.927 34.0803 266.798 33.9706L266.87 34.907C266.157 35.0271 265.402 35.1163 264.606 35.1746V36.9549H263.289V38.2412H268.959V39.2909ZM263.834 30.4203C264.284 30.4168 264.685 30.4854 265.038 30.6261C265.392 30.7667 265.668 30.9657 265.867 31.2229C266.069 31.4768 266.17 31.7684 266.17 32.0977C266.17 32.4235 266.071 32.7117 265.872 32.9621C265.673 33.2125 265.395 33.4063 265.038 33.5435C264.685 33.6773 264.284 33.7442 263.834 33.7442C263.375 33.7442 262.967 33.6773 262.61 33.5435C262.253 33.4063 261.975 33.2142 261.776 32.9672C261.577 32.7168 261.478 32.427 261.478 32.0977C261.478 31.7684 261.576 31.4768 261.771 31.2229C261.97 30.9657 262.248 30.7667 262.605 30.6261C262.965 30.4854 263.375 30.4168 263.834 30.4203ZM263.834 31.3773C263.495 31.3773 263.224 31.4408 263.021 31.5677C262.819 31.6946 262.72 31.8713 262.723 32.0977C262.72 32.3206 262.817 32.4939 263.016 32.6173C263.219 32.7374 263.491 32.7974 263.834 32.7974C264.157 32.7974 264.418 32.7357 264.616 32.6122C264.819 32.4887 264.922 32.3172 264.925 32.0977C264.922 31.8713 264.819 31.6946 264.616 31.5677C264.418 31.4408 264.157 31.3773 263.834 31.3773Z" fill="#222222"/>
</g>
</g>
<g filter="url(#filter1_d_923_57934)">
<rect x="71.0625" y="41.5176" width="193.027" height="50.826" rx="10.6064" fill="url(#paint1_linear_923_57934)" shape-rendering="crispEdges"/>
<rect x="71.5625" y="42.0176" width="192.027" height="49.826" rx="10.1064" stroke="black" stroke-opacity="0.05" shape-rendering="crispEdges"/>
<g opacity="0.7">
<path d="M91.4143 53.3006V55.3382H92.6528V56.2171H91.4143V58.3345H90.3156V53.3006H91.4143ZM84.5626 55.9175C84.5426 54.669 85.5714 53.8 86.9397 53.8C88.2881 53.8 89.3068 54.669 89.3168 55.9175C89.3068 57.156 88.2881 58.0249 86.9397 58.0349C85.5714 58.0249 84.5426 57.156 84.5626 55.9175ZM85.6213 55.9175C85.6113 56.6466 86.1706 57.106 86.9397 57.116C87.6788 57.106 88.2481 56.6466 88.2581 55.9175C88.2481 55.1883 87.6888 54.7089 86.9397 54.7189C86.1706 54.7089 85.6113 55.1883 85.6213 55.9175ZM85.7212 62.0101V58.734H91.4143V62.0101H85.7212ZM86.7799 61.1311H90.3356V59.593H86.7799V61.1311ZM96.231 55.0985C96.231 56.1971 96.9801 57.2658 98.3884 57.6953L97.8291 58.5543C96.8303 58.2247 96.1012 57.5655 95.7016 56.7265C95.3121 57.6354 94.563 58.3645 93.5143 58.7141L92.955 57.8551C94.3733 57.3957 95.1323 56.257 95.1323 55.0985V54.8388H93.2346V53.9798H98.0887V54.8388H96.231V55.0985ZM94.3932 61.9501V59.1136H95.4919V61.0712H100.466V61.9501H94.3932ZM99.1475 59.7128V53.3206H100.226V59.7128H99.1475ZM108.279 53.3006V55.7776H109.517V56.6765H108.279V59.6729H107.18V53.3006H108.279ZM101.687 58.1947V54.0397H105.642V54.8987H102.766V57.2958C104.424 57.2958 105.343 57.2458 106.381 57.0361L106.501 57.8951C105.352 58.1348 104.324 58.1847 102.406 58.1947H101.687ZM102.626 61.9501V59.0137H103.704V61.0712H108.619V61.9501H102.626ZM117.091 53.3006V62.1299H115.992V53.3006H117.091ZM110.219 60.0524V54.0198H111.298V56.2171H113.435V54.0198H114.514V60.0524H110.219ZM111.298 59.1535H113.435V57.076H111.298V59.1535Z" fill="#222222"/>
<path d="M89.5389 71.1275V71.0586H84.6455V69.3631H91.6892V71.0861L87.485 79.3428H85.3347L89.5389 71.1275ZM92.1275 82.2512H90.6664L91.3556 78.3228H93.3129L92.1275 82.2512ZM98.3276 79.4806C97.4959 79.4806 96.7792 79.2807 96.1773 78.881C95.58 78.4767 95.1205 77.8909 94.7989 77.1235C94.4772 76.3562 94.3164 75.4327 94.3164 74.3529C94.3164 73.2732 94.4772 72.3497 94.7989 71.5824C95.1205 70.815 95.58 70.2315 96.1773 69.8318C96.7792 69.4274 97.4959 69.2253 98.3276 69.2253C99.1546 69.2253 99.8691 69.4274 100.471 69.8318C101.073 70.2315 101.535 70.8173 101.856 71.5892C102.178 72.3566 102.339 73.2778 102.339 74.3529C102.339 75.4373 102.178 76.3631 101.856 77.1304C101.535 77.8977 101.073 78.4813 100.471 78.881C99.8737 79.2807 99.1592 79.4806 98.3276 79.4806ZM98.3276 77.7714C98.7135 77.7714 99.0466 77.6473 99.3269 77.3992C99.6118 77.1511 99.83 76.7766 99.9817 76.2758C100.138 75.775 100.216 75.157 100.216 74.4219C100.216 73.2778 100.051 72.4094 99.7198 71.8167C99.389 71.2194 98.9249 70.9207 98.3276 70.9207C97.7303 70.9207 97.2662 71.2194 96.9354 71.8167C96.6046 72.4094 96.4392 73.2778 96.4392 74.4219C96.4392 75.157 96.515 75.775 96.6666 76.2758C96.8228 76.7766 97.0411 77.1511 97.3213 77.3992C97.6062 77.6473 97.9416 77.7714 98.3276 77.7714ZM107.381 79.4806C106.549 79.4806 105.833 79.2807 105.231 78.881C104.633 78.4767 104.174 77.8909 103.852 77.1235C103.531 76.3562 103.37 75.4327 103.37 74.3529C103.37 73.2732 103.531 72.3497 103.852 71.5824C104.174 70.815 104.633 70.2315 105.231 69.8318C105.833 69.4274 106.549 69.2253 107.381 69.2253C108.208 69.2253 108.922 69.4274 109.524 69.8318C110.126 70.2315 110.588 70.8173 110.91 71.5892C111.231 72.3566 111.392 73.2778 111.392 74.3529C111.392 75.4373 111.231 76.3631 110.91 77.1304C110.588 77.8977 110.126 78.4813 109.524 78.881C108.927 79.2807 108.213 79.4806 107.381 79.4806ZM107.381 77.7714C107.767 77.7714 108.1 77.6473 108.38 77.3992C108.665 77.1511 108.883 76.7766 109.035 76.2758C109.191 75.775 109.269 75.157 109.269 74.4219C109.269 73.2778 109.104 72.4094 108.773 71.8167C108.442 71.2194 107.978 70.9207 107.381 70.9207C106.784 70.9207 106.32 71.2194 105.989 71.8167C105.658 72.4094 105.493 73.2778 105.493 74.4219C105.493 75.157 105.568 75.775 105.72 76.2758C105.876 76.7766 106.094 77.1511 106.375 77.3992C106.66 77.6473 106.995 77.7714 107.381 77.7714ZM116.434 79.4806C115.603 79.4806 114.886 79.2807 114.284 78.881C113.687 78.4767 113.227 77.8909 112.906 77.1235C112.584 76.3562 112.423 75.4327 112.423 74.3529C112.423 73.2732 112.584 72.3497 112.906 71.5824C113.227 70.815 113.687 70.2315 114.284 69.8318C114.886 69.4274 115.603 69.2253 116.434 69.2253C117.261 69.2253 117.976 69.4274 118.578 69.8318C119.18 70.2315 119.641 70.8173 119.963 71.5892C120.285 72.3566 120.445 73.2778 120.445 74.3529C120.445 75.4373 120.285 76.3631 119.963 77.1304C119.641 77.8977 119.18 78.4813 118.578 78.881C117.98 79.2807 117.266 79.4806 116.434 79.4806ZM116.434 77.7714C116.82 77.7714 117.153 77.6473 117.434 77.3992C117.719 77.1511 117.937 76.7766 118.088 76.2758C118.245 75.775 118.323 75.157 118.323 74.4219C118.323 73.2778 118.157 72.4094 117.827 71.8167C117.496 71.2194 117.032 70.9207 116.434 70.9207C115.837 70.9207 115.373 71.2194 115.042 71.8167C114.711 72.4094 114.546 73.2778 114.546 74.4219C114.546 75.157 114.622 75.775 114.773 76.2758C114.93 76.7766 115.148 77.1511 115.428 77.3992C115.713 77.6473 116.048 77.7714 116.434 77.7714Z" fill="#FF9B00"/>
<mask id="mask1_923_57934" style="mask-type:alpha" maskUnits="userSpaceOnUse" x="125" y="64" width="15" height="21">
<rect x="125.879" y="64.3428" width="13.2327" height="20" fill="white"/>
</mask>
<g mask="url(#mask1_923_57934)">
<path d="M135.419 72.3126L132.05 75.5265L128.681 72.3126C128.342 71.9895 127.795 71.9895 127.456 72.3126C127.118 72.6356 127.118 73.1575 127.456 73.4805L131.442 77.2826C131.781 77.6056 132.328 77.6056 132.666 77.2826L136.652 73.4805C136.991 73.1575 136.991 72.6356 136.652 72.3126C136.314 71.9978 135.758 71.9896 135.419 72.3126Z" fill="#FF9B00"/>
</g>
<path d="M146.495 70.8912V75.7308H141.655V70.8912H146.495ZM142.717 74.8573H145.409V71.7883H142.717V74.8573ZM142.835 80.0982V76.8168H143.921V79.2247H149.823V80.0982H142.835ZM148.289 77.5486V69.9941H149.375V73.0867H150.862V73.9838H149.375V77.5486H148.289ZM160.048 69.9941V77.8319H158.939V76.8404H156.885V76.0613H158.939V69.9941H160.048ZM151.408 74.7157C153.32 74.7039 155.894 74.6803 158.089 74.4088L158.16 75.1878C157.275 75.3413 156.354 75.4357 155.445 75.4947V77.5014H154.359V75.5537C153.356 75.5892 152.388 75.5892 151.55 75.5892L151.408 74.7157ZM152.211 72.2133C152.211 71.1273 153.261 70.3955 154.784 70.3955C156.295 70.3955 157.345 71.1273 157.357 72.2133C157.345 73.3228 156.295 74.0192 154.784 74.0074C153.261 74.0192 152.211 73.3228 152.211 72.2133ZM152.848 80.0982V77.0764H153.934V79.2247H160.308V80.0982H152.848ZM153.249 72.2133C153.249 72.8271 153.875 73.2166 154.784 73.2048C155.669 73.2166 156.307 72.8271 156.318 72.2133C156.307 71.5995 155.669 71.2099 154.784 71.2217C153.875 71.2099 153.249 71.5995 153.249 72.2133Z" fill="#222222"/>
<path d="M193.427 77.893L196.886 74.7142C197.227 74.3861 197.491 74.1134 197.677 73.8962C197.868 73.6789 198.014 73.4639 198.116 73.2511C198.218 73.0339 198.269 72.8033 198.269 72.5595C198.269 72.2802 198.202 72.0363 198.069 71.8279C197.941 71.6196 197.759 71.46 197.524 71.3491C197.293 71.2338 197.032 71.1762 196.739 71.1762C196.287 71.1762 195.926 71.3114 195.655 71.5819C195.385 71.8479 195.25 72.2092 195.25 72.6659H193.348C193.343 72.0452 193.483 71.5021 193.767 71.0366C194.055 70.571 194.458 70.2119 194.977 69.9592C195.496 69.7065 196.092 69.5801 196.766 69.5801C197.444 69.5801 198.043 69.7021 198.561 69.9459C199.08 70.1853 199.481 70.52 199.765 70.9501C200.053 71.3801 200.197 71.8723 200.197 72.4265C200.197 72.8033 200.124 73.1669 199.978 73.5171C199.832 73.8629 199.577 74.2509 199.213 74.6809C198.854 75.1065 198.344 75.6186 197.684 76.2171L196.221 77.6403V77.6935H200.33V79.3428H193.441L193.427 77.893ZM205.491 79.4758C204.689 79.4758 203.997 79.2829 203.416 78.8972C202.84 78.5071 202.396 77.9418 202.086 77.2014C201.776 76.461 201.621 75.5698 201.621 74.528C201.621 73.4861 201.776 72.5949 202.086 71.8545C202.396 71.1141 202.84 70.5511 203.416 70.1654C203.997 69.7752 204.689 69.5801 205.491 69.5801C206.289 69.5801 206.979 69.7752 207.559 70.1654C208.14 70.5511 208.586 71.1164 208.896 71.8612C209.206 72.6016 209.362 73.4905 209.362 74.528C209.362 75.5743 209.206 76.4676 208.896 77.208C208.586 77.9484 208.14 78.5115 207.559 78.8972C206.983 79.2829 206.294 79.4758 205.491 79.4758ZM205.491 77.8265C205.863 77.8265 206.185 77.7068 206.455 77.4674C206.73 77.228 206.941 76.8666 207.087 76.3834C207.238 75.9001 207.313 75.3038 207.313 74.5945C207.313 73.4905 207.154 72.6526 206.834 72.0806C206.515 71.5043 206.067 71.2161 205.491 71.2161C204.915 71.2161 204.467 71.5043 204.148 72.0806C203.829 72.6526 203.669 73.4905 203.669 74.5945C203.669 75.3038 203.742 75.9001 203.888 76.3834C204.039 76.8666 204.25 77.228 204.52 77.4674C204.795 77.7068 205.119 77.8265 205.491 77.8265ZM211.357 82.1492H209.947L210.612 78.3585H212.5L211.357 82.1492ZM217.515 79.4758C216.819 79.4758 216.194 79.3561 215.639 79.1167C215.09 78.8728 214.655 78.5359 214.336 78.1058C214.021 77.6713 213.857 77.1792 213.844 76.6295H215.866C215.879 76.8644 215.959 77.0728 216.105 77.2546C216.251 77.4364 216.449 77.5782 216.697 77.6802C216.945 77.7777 217.222 77.8265 217.528 77.8265C217.843 77.8265 218.124 77.7711 218.373 77.6602C218.625 77.545 218.82 77.3876 218.958 77.1881C219.1 76.9886 219.169 76.7625 219.164 76.5097C219.169 76.2482 219.095 76.0154 218.945 75.8115C218.798 75.6075 218.588 75.4501 218.313 75.3393C218.038 75.224 217.714 75.1664 217.342 75.1664H216.451V73.69H217.342C217.652 73.69 217.929 73.6368 218.173 73.5304C218.417 73.424 218.608 73.2733 218.745 73.0782C218.883 72.8831 218.951 72.6614 218.951 72.4132C218.951 72.1693 218.891 71.9543 218.772 71.7681C218.656 71.5819 218.492 71.4378 218.28 71.3358C218.067 71.2294 217.821 71.1762 217.541 71.1762C217.258 71.1762 216.996 71.2272 216.757 71.3292C216.522 71.4267 216.331 71.5686 216.185 71.7548C216.043 71.9366 215.968 72.1472 215.959 72.3866H214.043C214.052 71.8412 214.21 71.3558 214.516 70.9301C214.821 70.5045 215.238 70.1742 215.766 69.9393C216.298 69.6998 216.89 69.5801 217.541 69.5801C218.198 69.5801 218.778 69.6998 219.284 69.9393C219.794 70.1742 220.188 70.5001 220.468 70.9168C220.747 71.3292 220.884 71.788 220.88 72.2935C220.884 72.6437 220.809 72.9629 220.654 73.2511C220.503 73.5348 220.288 73.7698 220.009 73.956C219.734 74.1422 219.417 74.2664 219.058 74.3284V74.4083C219.523 74.4659 219.92 74.5945 220.248 74.794C220.576 74.9935 220.824 75.2528 220.993 75.5721C221.161 75.8868 221.243 76.2437 221.239 76.6428C221.243 77.1836 221.086 77.6713 220.767 78.1058C220.448 78.5359 220.004 78.8728 219.437 79.1167C218.869 79.3561 218.229 79.4758 217.515 79.4758ZM226.187 79.4758C225.526 79.4758 224.93 79.3539 224.398 79.11C223.87 78.8662 223.454 78.5292 223.148 78.0992C222.846 77.6647 222.689 77.1748 222.675 76.6295H224.617C224.631 76.8777 224.708 77.0972 224.85 77.2878C224.992 77.4785 225.18 77.627 225.415 77.7334C225.65 77.8398 225.907 77.893 226.187 77.893C226.515 77.893 226.808 77.8221 227.065 77.6802C227.326 77.5339 227.528 77.3322 227.67 77.075C227.816 76.8134 227.889 76.5186 227.889 76.1905C227.889 75.8536 227.816 75.5543 227.67 75.2927C227.524 75.0312 227.317 74.8272 227.051 74.6809C226.79 74.5302 226.493 74.4526 226.16 74.4482C225.438 74.4482 224.932 74.7186 224.644 75.2595H222.835L223.354 69.7131H229.286V71.3491H225.003L224.737 73.7831H224.817C224.999 73.5393 225.26 73.3442 225.602 73.1979C225.947 73.0472 226.329 72.9718 226.745 72.9718C227.331 72.9718 227.856 73.107 228.322 73.3775C228.792 73.6479 229.159 74.0248 229.426 74.508C229.696 74.9868 229.831 75.5299 229.831 76.1373C229.831 76.7802 229.678 77.3543 229.372 77.8598C229.066 78.3652 228.636 78.762 228.082 79.0502C227.532 79.3339 226.901 79.4758 226.187 79.4758ZM234.925 79.4758C234.123 79.4758 233.431 79.2829 232.85 78.8972C232.274 78.5071 231.831 77.9418 231.52 77.2014C231.21 76.461 231.055 75.5698 231.055 74.528C231.055 73.4861 231.21 72.5949 231.52 71.8545C231.831 71.1141 232.274 70.5511 232.85 70.1654C233.431 69.7752 234.123 69.5801 234.925 69.5801C235.723 69.5801 236.413 69.7752 236.994 70.1654C237.574 70.5511 238.02 71.1164 238.33 71.8612C238.641 72.6016 238.796 73.4905 238.796 74.528C238.796 75.5743 238.641 76.4676 238.33 77.208C238.02 77.9484 237.574 78.5115 236.994 78.8972C236.417 79.2829 235.728 79.4758 234.925 79.4758ZM234.925 77.8265C235.298 77.8265 235.619 77.7068 235.89 77.4674C236.164 77.228 236.375 76.8666 236.521 76.3834C236.672 75.9001 236.747 75.3038 236.747 74.5945C236.747 73.4905 236.588 72.6526 236.269 72.0806C235.949 71.5043 235.502 71.2161 234.925 71.2161C234.349 71.2161 233.901 71.5043 233.582 72.0806C233.263 72.6526 233.103 73.4905 233.103 74.5945C233.103 75.3038 233.176 75.9001 233.323 76.3834C233.473 76.8666 233.684 77.228 233.954 77.4674C234.229 77.7068 234.553 77.8265 234.925 77.8265ZM250.035 77.6137H248.332V76.6561H246.018V75.4989H248.332V68.4762H250.035V77.6137ZM250.301 80.3536H241.283V76.7359H242.972V75.1265C242.148 75.162 241.137 75.1797 239.94 75.1797L239.74 73.8363C241.301 73.8275 242.704 73.8009 243.95 73.7565C245.196 73.7122 246.382 73.6191 247.508 73.4772L247.601 74.6876C246.679 74.8427 245.703 74.958 244.675 75.0334V77.3344H242.972V78.997H250.301V80.3536ZM243.677 68.8885C244.258 68.8841 244.777 68.9727 245.233 69.1545C245.69 69.3363 246.047 69.5934 246.304 69.926C246.566 70.254 246.696 70.6309 246.696 71.0565C246.696 71.4777 246.568 71.8501 246.311 72.1738C246.053 72.4974 245.694 72.7479 245.233 72.9252C244.777 73.0981 244.258 73.1846 243.677 73.1846C243.083 73.1846 242.555 73.0981 242.094 72.9252C241.633 72.7479 241.274 72.4996 241.017 72.1804C240.76 71.8568 240.631 71.4821 240.631 71.0565C240.631 70.6309 240.758 70.254 241.01 69.926C241.267 69.5934 241.627 69.3363 242.088 69.1545C242.553 68.9727 243.083 68.8841 243.677 68.8885ZM243.677 70.1255C243.238 70.1255 242.888 70.2075 242.626 70.3715C242.365 70.5356 242.236 70.7639 242.241 71.0565C242.236 71.3447 242.363 71.5686 242.62 71.7282C242.881 71.8834 243.234 71.9609 243.677 71.9609C244.094 71.9609 244.431 71.8811 244.688 71.7215C244.95 71.5619 245.083 71.3402 245.087 71.0565C245.083 70.7639 244.95 70.5356 244.688 70.3715C244.431 70.2075 244.094 70.1255 243.677 70.1255Z" fill="#222222"/>
</g>
</g>
<g filter="url(#filter2_d_923_57934)">
<rect x="9" y="82.9492" width="236.128" height="59.1483" rx="10.8215" fill="white" shape-rendering="crispEdges"/>
<rect x="9.5" y="83.4492" width="235.128" height="58.1483" rx="10.3215" stroke="black" stroke-opacity="0.05" shape-rendering="crispEdges"/>
<path d="M34.6019 95.1068V97.6062H36.1212V98.6844H34.6019V101.282H33.2542V95.1068H34.6019ZM26.1971 98.3168C26.1726 96.7853 27.4346 95.7194 29.1131 95.7194C30.7671 95.7194 32.0168 96.7853 32.029 98.3168C32.0168 99.8361 30.7671 100.902 29.1131 100.914C27.4346 100.902 26.1726 99.8361 26.1971 98.3168ZM27.4958 98.3168C27.4836 99.2112 28.1697 99.7748 29.1131 99.7871C30.0197 99.7748 30.7181 99.2112 30.7303 98.3168C30.7181 97.4224 30.032 96.8344 29.1131 96.8466C28.1697 96.8344 27.4836 97.4224 27.4958 98.3168ZM27.6183 105.791V101.772H34.6019V105.791H27.6183ZM28.917 104.712H33.2787V102.826H28.917V104.712ZM40.5105 97.3122C40.5105 98.6599 41.4294 99.9709 43.157 100.498L42.4708 101.551C41.2457 101.147 40.3513 100.338 39.8612 99.3092C39.3834 100.424 38.4645 101.319 37.178 101.747L36.4919 100.694C38.2317 100.13 39.1628 98.7334 39.1628 97.3122V96.9936H36.835V95.94H42.7894V96.9936H40.5105V97.3122ZM38.2562 105.717V102.237H39.6039V104.639H45.7054V105.717H38.2562ZM44.0881 102.973V95.1313H45.4113V102.973H44.0881ZM55.2895 95.1068V98.1453H56.8088V99.248H55.2895V102.924H53.9418V95.1068H55.2895ZM47.2033 101.11V96.0135H52.055V97.0671H48.5265V100.008C50.5603 100.008 51.6875 99.9463 52.9617 99.6891L53.1087 100.743C51.6997 101.037 50.4378 101.098 48.0854 101.11H47.2033ZM48.3549 105.717V102.115H49.6781V104.639H55.7061V105.717H48.3549ZM66.0989 95.1068V105.938H64.7512V95.1068H66.0989ZM57.6696 103.389V95.989H58.9928V98.6844H61.6147V95.989H62.9379V103.389H57.6696ZM58.9928 102.286H61.6147V99.7381H58.9928V102.286Z" fill="#222222"/>
<path d="M31.1685 126.914C30.3287 126.914 29.5707 126.759 28.8943 126.449C28.2236 126.139 27.6938 125.711 27.3049 125.164C26.9216 124.612 26.7216 123.989 26.7046 123.296H29.1733C29.1902 123.611 29.2889 123.89 29.4692 124.133C29.6496 124.375 29.8891 124.564 30.1878 124.699C30.4865 124.834 30.8134 124.902 31.1685 124.902C31.5856 124.902 31.9576 124.812 32.2845 124.632C32.617 124.446 32.8735 124.189 33.0538 123.862C33.2398 123.53 33.3328 123.155 33.3328 122.738C33.3328 122.309 33.2398 121.929 33.0538 121.596C32.8679 121.264 32.6058 121.005 32.2676 120.819C31.9351 120.627 31.5574 120.528 31.1347 120.523C30.216 120.523 29.5735 120.867 29.2071 121.554H26.9075L27.567 114.503H35.1083V116.583H29.6637L29.3255 119.677H29.4269C29.658 119.367 29.9906 119.119 30.4245 118.933C30.8642 118.742 31.3489 118.646 31.8787 118.646C32.6227 118.646 33.2906 118.818 33.8824 119.162C34.4798 119.505 34.9476 119.984 35.2858 120.599C35.6296 121.208 35.8015 121.898 35.8015 122.67C35.8015 123.487 35.6071 124.217 35.2182 124.86C34.8293 125.502 34.2825 126.007 33.578 126.373C32.8791 126.734 32.076 126.914 31.1685 126.914ZM38.0977 130.313H36.3054L37.1508 125.494H39.5518L38.0977 130.313ZM45.7032 126.914C44.6831 126.914 43.8038 126.669 43.0655 126.179C42.3328 125.683 41.7691 124.964 41.3746 124.023C40.9801 123.082 40.7828 121.949 40.7828 120.624C40.7828 119.3 40.9801 118.167 41.3746 117.226C41.7691 116.284 42.3328 115.568 43.0655 115.078C43.8038 114.582 44.6831 114.334 45.7032 114.334C46.7177 114.334 47.5942 114.582 48.3325 115.078C49.0709 115.568 49.6373 116.287 50.0318 117.234C50.4264 118.175 50.6236 119.305 50.6236 120.624C50.6236 121.954 50.4264 123.09 50.0318 124.031C49.6373 124.973 49.0709 125.688 48.3325 126.179C47.5998 126.669 46.7234 126.914 45.7032 126.914ZM45.7032 124.818C46.1767 124.818 46.5853 124.665 46.9291 124.361C47.2785 124.057 47.5463 123.597 47.7323 122.983C47.9239 122.369 48.0197 121.611 48.0197 120.709C48.0197 119.305 47.8168 118.24 47.411 117.513C47.0052 116.78 46.4359 116.414 45.7032 116.414C44.9705 116.414 44.4013 116.78 43.9954 117.513C43.5896 118.24 43.3867 119.305 43.3867 120.709C43.3867 121.611 43.4797 122.369 43.6657 122.983C43.8574 123.597 44.1251 124.057 44.4689 124.361C44.8183 124.665 45.2298 124.818 45.7032 124.818ZM56.8088 126.914C55.7887 126.914 54.9094 126.669 54.1711 126.179C53.4384 125.683 52.8748 124.964 52.4802 124.023C52.0857 123.082 51.8884 121.949 51.8884 120.624C51.8884 119.3 52.0857 118.167 52.4802 117.226C52.8748 116.284 53.4384 115.568 54.1711 115.078C54.9094 114.582 55.7887 114.334 56.8088 114.334C57.8234 114.334 58.6998 114.582 59.4381 115.078C60.1765 115.568 60.7429 116.287 61.1375 117.234C61.532 118.175 61.7293 119.305 61.7293 120.624C61.7293 121.954 61.532 123.09 61.1375 124.031C60.7429 124.973 60.1765 125.688 59.4381 126.179C58.7054 126.669 57.829 126.914 56.8088 126.914ZM56.8088 124.818C57.2823 124.818 57.6909 124.665 58.0347 124.361C58.3842 124.057 58.6519 123.597 58.8379 122.983C59.0295 122.369 59.1253 121.611 59.1253 120.709C59.1253 119.305 58.9224 118.24 58.5166 117.513C58.1108 116.78 57.5415 116.414 56.8088 116.414C56.0761 116.414 55.5069 116.78 55.1011 117.513C54.6953 118.24 54.4923 119.305 54.4923 120.709C54.4923 121.611 54.5853 122.369 54.7713 122.983C54.963 123.597 55.2307 124.057 55.5745 124.361C55.9239 124.665 56.3354 124.818 56.8088 124.818ZM67.9144 126.914C66.8943 126.914 66.015 126.669 65.2767 126.179C64.544 125.683 63.9804 124.964 63.5858 124.023C63.1913 123.082 62.994 121.949 62.994 120.624C62.994 119.3 63.1913 118.167 63.5858 117.226C63.9804 116.284 64.544 115.568 65.2767 115.078C66.015 114.582 66.8943 114.334 67.9144 114.334C68.929 114.334 69.8054 114.582 70.5437 115.078C71.2821 115.568 71.8485 116.287 72.2431 117.234C72.6376 118.175 72.8349 119.305 72.8349 120.624C72.8349 121.954 72.6376 123.09 72.2431 124.031C71.8485 124.973 71.2821 125.688 70.5437 126.179C69.811 126.669 68.9346 126.914 67.9144 126.914ZM67.9144 124.818C68.3879 124.818 68.7965 124.665 69.1403 124.361C69.4898 124.057 69.7575 123.597 69.9435 122.983C70.1351 122.369 70.2309 121.611 70.2309 120.709C70.2309 119.305 70.028 118.24 69.6222 117.513C69.2164 116.78 68.6472 116.414 67.9144 116.414C67.1817 116.414 66.6125 116.78 66.2067 117.513C65.8009 118.24 65.598 119.305 65.598 120.709C65.598 121.611 65.691 122.369 65.877 122.983C66.0686 123.597 66.3363 124.057 66.6801 124.361C67.0296 124.665 67.441 124.818 67.9144 124.818Z" fill="#FF9B00"/>
<mask id="mask2_923_57934" style="mask-type:alpha" maskUnits="userSpaceOnUse" x="75" y="108" width="18" height="25">
<rect x="75.8711" y="108.745" width="16.2324" height="24" fill="white"/>
</mask>
<g mask="url(#mask2_923_57934)">
<path d="M87.5743 118.308L83.4412 122.165L79.3082 118.308C78.8928 117.921 78.2217 117.921 77.8063 118.308C77.3908 118.696 77.3908 119.322 77.8063 119.71L82.6956 124.272C83.111 124.66 83.7821 124.66 84.1975 124.272L89.0869 119.71C89.5023 119.322 89.5023 118.696 89.0869 118.308C88.6714 117.931 87.9897 117.921 87.5743 118.308Z" fill="#FF9B00"/>
</g>
<path d="M101.16 115.378V121.314H95.2232V115.378H101.16ZM96.5264 120.243H99.8277V116.478H96.5264V120.243ZM96.6712 126.672V122.646H98.0033V125.6H105.243V126.672H96.6712ZM103.361 123.544V114.277H104.693V118.071H106.517V119.171H104.693V123.544H103.361ZM117.786 114.277V123.892H116.425V122.675H113.906V121.72H116.425V114.277H117.786ZM107.187 120.069C109.533 120.055 112.689 120.026 115.383 119.693L115.469 120.648C114.383 120.837 113.254 120.952 112.139 121.025V123.486H110.807V121.097C109.576 121.141 108.389 121.141 107.361 121.141L107.187 120.069ZM108.172 116.999C108.172 115.667 109.46 114.77 111.328 114.77C113.182 114.77 114.47 115.667 114.485 116.999C114.47 118.361 113.182 119.215 111.328 119.2C109.46 119.215 108.172 118.361 108.172 116.999ZM108.954 126.672V122.965H110.286V125.6H118.105V126.672H108.954ZM109.446 116.999C109.446 117.752 110.213 118.23 111.328 118.216C112.414 118.23 113.196 117.752 113.211 116.999C113.196 116.247 112.414 115.769 111.328 115.783C110.213 115.769 109.446 116.247 109.446 116.999Z" fill="#222222"/>
<g clip-path="url(#clip0_923_57934)">
<path d="M179.935 125.352L178.532 130.002H176.803L177.619 125.352H179.935Z" fill="#222222"/>
<path d="M208.079 116.697C205.126 116.697 203.332 114.495 203.332 110.628C203.332 106.761 205.126 104.559 208.079 104.559C211.033 104.559 212.827 106.778 212.827 110.628C212.827 114.511 211.033 116.697 208.079 116.697ZM208.079 114.674C209.45 114.674 210.331 113.353 210.315 110.628C210.315 107.936 209.45 106.565 208.079 106.565C206.709 106.565 205.844 107.936 205.844 110.628C205.828 113.353 206.709 114.674 208.079 114.674Z" fill="url(#paint2_linear_923_57934)"/>
<path d="M197.05 117.811C194.097 117.811 192.302 115.609 192.302 111.742C192.302 107.875 194.097 105.672 197.05 105.672C200.003 105.672 201.798 107.891 201.798 111.742C201.798 115.625 200.003 117.811 197.05 117.811ZM197.05 115.788C198.421 115.788 199.302 114.467 199.285 111.742C199.285 109.05 198.421 107.679 197.05 107.679C195.68 107.679 194.815 109.05 194.815 111.742C194.799 114.467 195.68 115.788 197.05 115.788Z" fill="url(#paint3_linear_923_57934)"/>
<path d="M186.331 118.925C183.867 118.925 182.072 117.473 182.023 115.433H184.406C184.454 116.363 185.303 116.983 186.331 116.983C187.554 116.983 188.419 116.119 188.419 114.895C188.419 113.639 187.538 112.774 186.298 112.758C185.417 112.758 184.797 113.084 184.438 113.753H182.219L182.856 106.949H190.132V108.956H184.879L184.552 111.942H184.65C185.091 111.355 185.972 110.947 187.016 110.947C189.186 110.947 190.801 112.562 190.801 114.83C190.801 117.212 188.99 118.925 186.331 118.925Z" fill="url(#paint4_linear_923_57934)"/>
<path d="M170.392 126.806C167.929 126.806 166.134 125.354 166.085 123.314H168.467C168.516 124.244 169.364 124.864 170.392 124.864C171.616 124.864 172.481 123.999 172.481 122.776C172.481 121.519 171.6 120.655 170.36 120.638C169.479 120.638 168.859 120.965 168.5 121.634H166.281L166.917 114.83H174.194V116.837H168.94L168.614 119.823H168.712C169.152 119.235 170.033 118.827 171.078 118.827C173.248 118.827 174.863 120.443 174.863 122.711C174.863 125.093 173.052 126.806 170.392 126.806Z" fill="#222222"/>
<path d="M170.392 126.806C167.929 126.806 166.134 125.354 166.085 123.314H168.467C168.516 124.244 169.364 124.864 170.392 124.864C171.616 124.864 172.481 123.999 172.481 122.776C172.481 121.519 171.6 120.655 170.36 120.638C169.479 120.638 168.859 120.965 168.5 121.634H166.281L166.917 114.83H174.194V116.837H168.94L168.614 119.823H168.712C169.152 119.235 170.033 118.827 171.078 118.827C173.248 118.827 174.863 120.443 174.863 122.711C174.863 125.093 173.052 126.806 170.392 126.806Z" fill="#222222"/>
<path d="M208.08 133.404C205.126 133.404 203.332 131.202 203.332 127.335C203.332 123.468 205.126 121.266 208.08 121.266C211.033 121.266 212.827 123.485 212.827 127.335C212.827 131.218 211.033 133.404 208.08 133.404ZM208.08 131.381C209.45 131.381 210.331 130.06 210.315 127.335C210.315 124.643 209.45 123.272 208.08 123.272C206.709 123.272 205.844 124.643 205.844 127.335C205.828 130.06 206.709 131.381 208.08 131.381Z" fill="url(#paint5_linear_923_57934)"/>
<path d="M197.05 134.518C194.097 134.518 192.302 132.316 192.302 128.449C192.302 124.582 194.097 122.379 197.05 122.379C200.003 122.379 201.798 124.598 201.798 128.449C201.798 132.332 200.003 134.518 197.05 134.518ZM197.05 132.495C198.421 132.495 199.302 131.174 199.285 128.449C199.285 125.757 198.421 124.386 197.05 124.386C195.68 124.386 194.815 125.757 194.815 128.449C194.799 131.174 195.68 132.495 197.05 132.495Z" fill="url(#paint6_linear_923_57934)"/>
<path d="M186.159 135.632C183.711 135.616 181.395 134.164 181.395 129.84C181.395 125.859 183.303 123.493 186.257 123.493C188.639 123.493 190.254 124.994 190.499 126.936H188.084C187.888 126.104 187.203 125.598 186.257 125.598C184.658 125.598 183.809 127.05 183.793 129.367H183.907C184.446 128.323 185.62 127.703 186.926 127.703C189.047 127.703 190.629 129.302 190.629 131.521C190.629 133.919 188.818 135.648 186.159 135.632ZM186.142 133.691C187.35 133.691 188.247 132.777 188.247 131.586C188.247 130.411 187.382 129.481 186.175 129.481C184.968 129.481 184.054 130.427 184.038 131.586C184.054 132.744 184.935 133.691 186.142 133.691Z" fill="url(#paint7_linear_923_57934)"/>
<path d="M164.305 114.746V126.559H161.841V117.079H161.776L159.067 118.776V116.606L161.988 114.746H164.305Z" fill="#222222"/>
<path d="M226.961 124.966H224.873V123.791H222.034V122.372H224.873V113.757H226.961V124.966ZM227.288 128.327H216.226V123.889H218.298V121.915C217.286 121.958 216.046 121.98 214.578 121.98L214.333 120.332C216.247 120.321 217.969 120.289 219.497 120.234C221.025 120.18 222.48 120.066 223.861 119.892L223.976 121.376C222.844 121.567 221.648 121.708 220.386 121.801V124.623H218.298V126.663H227.288V128.327ZM219.162 114.263C219.875 114.257 220.511 114.366 221.071 114.589C221.632 114.812 222.069 115.128 222.385 115.535C222.706 115.938 222.866 116.4 222.866 116.922C222.866 117.439 222.708 117.896 222.393 118.293C222.077 118.69 221.637 118.997 221.071 119.215C220.511 119.427 219.875 119.533 219.162 119.533C218.434 119.533 217.786 119.427 217.221 119.215C216.655 118.997 216.215 118.693 215.899 118.301C215.584 117.904 215.426 117.444 215.426 116.922C215.426 116.4 215.581 115.938 215.891 115.535C216.207 115.128 216.647 114.812 217.213 114.589C217.784 114.366 218.434 114.257 219.162 114.263ZM219.162 115.78C218.624 115.78 218.194 115.881 217.873 116.082C217.553 116.283 217.395 116.563 217.4 116.922C217.395 117.276 217.55 117.55 217.865 117.746C218.186 117.937 218.619 118.032 219.162 118.032C219.674 118.032 220.087 117.934 220.402 117.738C220.723 117.542 220.886 117.27 220.892 116.922C220.886 116.563 220.723 116.283 220.402 116.082C220.087 115.881 219.674 115.78 219.162 115.78Z" fill="#222222"/>
</g>
</g>
<defs>
<filter id="filter0_d_923_57934" x="124.558" y="6.20177" width="160.795" height="53.7418" filterUnits="userSpaceOnUse" color-interpolation-filters="sRGB">
<feFlood flood-opacity="0" result="BackgroundImageFix"/>
<feColorMatrix in="SourceAlpha" type="matrix" values="0 0 0 0 0 0 0 0 0 0 0 0 0 0 0 0 0 0 127 0" result="hardAlpha"/>
<feOffset dy="2.79823"/>
<feGaussianBlur stdDeviation="2.79823"/>
<feComposite in2="hardAlpha" operator="out"/>
<feColorMatrix type="matrix" values="0 0 0 0 0 0 0 0 0 0 0 0 0 0 0 0 0 0 0.02 0"/>
<feBlend mode="normal" in2="BackgroundImageFix" result="effect1_dropShadow_923_57934"/>
<feBlend mode="normal" in="SourceGraphic" in2="effect1_dropShadow_923_57934" result="shape"/>
</filter>
<filter id="filter1_d_923_57934" x="65.11" y="38.5413" width="204.932" height="62.7311" filterUnits="userSpaceOnUse" color-interpolation-filters="sRGB">
<feFlood flood-opacity="0" result="BackgroundImageFix"/>
<feColorMatrix in="SourceAlpha" type="matrix" values="0 0 0 0 0 0 0 0 0 0 0 0 0 0 0 0 0 0 127 0" result="hardAlpha"/>
<feOffset dy="2.97623"/>
<feGaussianBlur stdDeviation="2.97623"/>
<feComposite in2="hardAlpha" operator="out"/>
<feColorMatrix type="matrix" values="0 0 0 0 0 0 0 0 0 0 0 0 0 0 0 0 0 0 0.05 0"/>
<feBlend mode="normal" in2="BackgroundImageFix" result="effect1_dropShadow_923_57934"/>
<feBlend mode="normal" in="SourceGraphic" in2="effect1_dropShadow_923_57934" result="shape"/>
</filter>
<filter id="filter2_d_923_57934" x="2.92681" y="79.9126" width="248.274" height="71.2948" filterUnits="userSpaceOnUse" color-interpolation-filters="sRGB">
<feFlood flood-opacity="0" result="BackgroundImageFix"/>
<feColorMatrix in="SourceAlpha" type="matrix" values="0 0 0 0 0 0 0 0 0 0 0 0 0 0 0 0 0 0 127 0" result="hardAlpha"/>
<feOffset dy="3.03659"/>
<feGaussianBlur stdDeviation="3.03659"/>
<feComposite in2="hardAlpha" operator="out"/>
<feColorMatrix type="matrix" values="0 0 0 0 0 0 0 0 0 0 0 0 0 0 0 0 0 0 0.08 0"/>
<feBlend mode="normal" in2="BackgroundImageFix" result="effect1_dropShadow_923_57934"/>
<feBlend mode="normal" in="SourceGraphic" in2="effect1_dropShadow_923_57934" result="shape"/>
</filter>
<linearGradient id="paint0_linear_923_57934" x1="204.955" y1="9" x2="204.955" y2="51.1645" gradientUnits="userSpaceOnUse">
<stop stop-color="white"/>
<stop offset="1" stop-color="#E7E8ED"/>
</linearGradient>
<linearGradient id="paint1_linear_923_57934" x1="167.576" y1="41.5176" x2="167.576" y2="92.3436" gradientUnits="userSpaceOnUse">
<stop offset="0.2" stop-color="white"/>
<stop offset="0.8" stop-color="#F1F1F1"/>
</linearGradient>
<linearGradient id="paint2_linear_923_57934" x1="197.425" y1="106.786" x2="197.425" y2="118.925" gradientUnits="userSpaceOnUse">
<stop offset="0.2" stop-color="white"/>
<stop offset="1" stop-color="#1B1B1B"/>
</linearGradient>
<linearGradient id="paint3_linear_923_57934" x1="197.425" y1="106.786" x2="197.425" y2="118.925" gradientUnits="userSpaceOnUse">
<stop offset="0.2" stop-color="white"/>
<stop offset="1" stop-color="#1B1B1B"/>
</linearGradient>
<linearGradient id="paint4_linear_923_57934" x1="197.425" y1="106.786" x2="197.425" y2="118.925" gradientUnits="userSpaceOnUse">
<stop offset="0.2" stop-color="white"/>
<stop offset="1" stop-color="#1B1B1B"/>
</linearGradient>
<linearGradient id="paint5_linear_923_57934" x1="197.111" y1="132.961" x2="197.111" y2="121.266" gradientUnits="userSpaceOnUse">
<stop stop-color="white"/>
<stop offset="1"/>
</linearGradient>
<linearGradient id="paint6_linear_923_57934" x1="197.111" y1="132.961" x2="197.111" y2="121.266" gradientUnits="userSpaceOnUse">
<stop stop-color="white"/>
<stop offset="1"/>
</linearGradient>
<linearGradient id="paint7_linear_923_57934" x1="197.111" y1="132.961" x2="197.111" y2="121.266" gradientUnits="userSpaceOnUse">
<stop stop-color="white"/>
<stop offset="1"/>
</linearGradient>
<clipPath id="clip0_923_57934">
<rect width="69.3533" height="24.5039" fill="white" transform="translate(159.067 108.745)"/>
</clipPath>
</defs>
</svg>
